<svg width="60" height="60" viewBox="0 0 60 60" fill="none" xmlns="http://www.w3.org/2000/svg">
<path d="M19.3111 40.6889C30.547 40.6889 39.6555 31.5804 39.6555 20.3445V13.2239C39.6555 4.55426 33.5754 -2.45569e-07 27.9575 0C22.3395 2.45569e-07 16.2594 4.55427 16.2594 13.2239V23.3961C10.0297 23.3961 3.26455 28.6735 0.388494 34.8037C-1.04322 37.8553 1.69915 40.6889 5.06993 40.6889H19.3111Z" fill="#35ADE9"/>
<path d="M19.311 40.6892C19.311 29.4533 28.4196 20.3447 39.6555 20.3447H46.7761C55.4457 20.3447 60 26.4248 60 32.0428C60 37.6608 55.4457 43.7409 46.7761 43.7409H36.6038C36.6038 49.9705 31.3265 56.7357 25.1963 59.6118C22.1447 61.0435 19.311 58.3011 19.311 54.9303V40.6892Z" fill="#35E9A1"/>
<path d="M19.311 40.6892C30.547 40.6892 39.6555 31.5807 39.6555 20.3447C28.4196 20.3447 19.311 29.4533 19.311 40.6892Z" fill="#35E9E3"/>
</svg>
