<svg width="24" height="24" viewBox="0 0 24 24" fill="none" xmlns="http://www.w3.org/2000/svg">
<path d="M14.0307 12.9695C13.961 12.8997 13.8783 12.8444 13.7873 12.8067C13.6962 12.7689 13.5986 12.7495 13.5001 12.7495C13.4015 12.7495 13.3039 12.7689 13.2128 12.8067C13.1218 12.8444 13.0391 12.8997 12.9694 12.9695L11.2501 14.6898L9.31036 12.7501L11.0307 11.0307C11.1714 10.89 11.2505 10.6991 11.2505 10.5001C11.2505 10.3011 11.1714 10.1102 11.0307 9.96948C10.8899 9.82875 10.6991 9.74969 10.5001 9.74969C10.301 9.74969 10.1102 9.82875 9.96943 9.96948L8.25005 11.6898L6.53068 9.96948C6.38995 9.82875 6.19907 9.74968 6.00005 9.74969C5.80103 9.74969 5.61016 9.82875 5.46943 9.96948C5.3287 10.1102 5.24963 10.3011 5.24963 10.5001C5.24963 10.6991 5.3287 10.89 5.46943 11.0307L6.06474 11.6251L3.87849 13.8104C3.59984 14.089 3.3788 14.4197 3.22799 14.7838C3.07719 15.1478 2.99957 15.538 2.99957 15.932C2.99957 16.326 3.07719 16.7162 3.22799 17.0802C3.3788 17.4442 3.59984 17.775 3.87849 18.0535L4.38286 18.557L1.71943 21.2195C1.64974 21.2892 1.59447 21.3719 1.55676 21.4629C1.51904 21.554 1.49963 21.6516 1.49963 21.7501C1.49963 21.8486 1.51904 21.9462 1.55676 22.0373C1.59447 22.1283 1.64974 22.211 1.71943 22.2807C1.86016 22.4215 2.05103 22.5005 2.25005 22.5005C2.3486 22.5005 2.44618 22.4811 2.53722 22.4434C2.62827 22.4057 2.71099 22.3504 2.78068 22.2807L5.44318 19.6173L5.94661 20.1217C6.2252 20.4003 6.55595 20.6214 6.91997 20.7722C7.28399 20.923 7.67415 21.0006 8.06818 21.0006C8.4622 21.0006 8.85236 20.923 9.21638 20.7722C9.58041 20.6214 9.91115 20.4003 10.1897 20.1217L12.3751 17.9354L12.9694 18.5307C13.0391 18.6004 13.1218 18.6557 13.2129 18.6934C13.3039 18.7311 13.4015 18.7505 13.5001 18.7505C13.5986 18.7505 13.6962 18.7311 13.7872 18.6934C13.8783 18.6557 13.961 18.6004 14.0307 18.5307C14.1004 18.461 14.1556 18.3783 14.1933 18.2873C14.2311 18.1962 14.2505 18.0986 14.2505 18.0001C14.2505 17.9016 14.2311 17.804 14.1933 17.7129C14.1556 17.6219 14.1004 17.5392 14.0307 17.4695L12.3104 15.7501L14.0307 14.0307C14.1004 13.9611 14.1557 13.8784 14.1935 13.7873C14.2312 13.6963 14.2506 13.5987 14.2506 13.5001C14.2506 13.4015 14.2312 13.3039 14.1935 13.2129C14.1557 13.1218 14.1004 13.0391 14.0307 12.9695ZM9.12849 19.0632C8.84721 19.3443 8.46583 19.5022 8.06818 19.5022C7.67052 19.5022 7.28914 19.3443 7.00786 19.0632L4.93974 16.9923C4.65865 16.711 4.50075 16.3296 4.50075 15.932C4.50075 15.5343 4.65865 15.1529 4.93974 14.8717L7.12505 12.6854L11.3147 16.8751L9.12849 19.0632ZM22.2807 1.71948C22.211 1.64974 22.1283 1.59443 22.0373 1.55668C21.9462 1.51894 21.8486 1.49951 21.7501 1.49951C21.6515 1.49951 21.5539 1.51894 21.4628 1.55668C21.3718 1.59443 21.2891 1.64974 21.2194 1.71948L18.5569 4.38291L18.0535 3.87854C17.4903 3.31693 16.7273 3.00155 15.9319 3.00155C15.1365 3.00155 14.3736 3.31693 13.8104 3.87854L11.6251 6.06479L11.0307 5.46948C10.8899 5.32875 10.6991 5.24968 10.5001 5.24968C10.301 5.24968 10.1102 5.32875 9.96943 5.46948C9.8287 5.61021 9.74963 5.80108 9.74963 6.0001C9.74963 6.19912 9.8287 6.39 9.96943 6.53073L17.4694 14.0307C17.5391 14.1004 17.6218 14.1557 17.7129 14.1934C17.8039 14.2311 17.9015 14.2505 18.0001 14.2505C18.0986 14.2505 18.1962 14.2311 18.2872 14.1934C18.3783 14.1557 18.461 14.1004 18.5307 14.0307C18.6004 13.961 18.6556 13.8783 18.6933 13.7873C18.7311 13.6962 18.7505 13.5986 18.7505 13.5001C18.7505 13.4016 18.7311 13.304 18.6933 13.2129C18.6556 13.1219 18.6004 13.0392 18.5307 12.9695L17.9354 12.3751L20.1216 10.1898C20.4003 9.91121 20.6213 9.58046 20.7721 9.21644C20.9229 8.85241 21.0005 8.46225 21.0005 8.06823C21.0005 7.6742 20.9229 7.28404 20.7721 6.92002C20.6213 6.556 20.4003 6.22525 20.1216 5.94666L19.6172 5.44323L22.2807 2.78073C22.3504 2.71107 22.4057 2.62836 22.4435 2.53731C22.4812 2.44626 22.5006 2.34866 22.5006 2.2501C22.5006 2.15154 22.4812 2.05395 22.4435 1.9629C22.4057 1.87185 22.3504 1.78913 22.2807 1.71948ZM19.0604 9.12573L16.8751 11.3148L12.6854 7.1251L14.8716 4.93979C15.1529 4.6587 15.5343 4.5008 15.9319 4.5008C16.3296 4.5008 16.711 4.6587 16.9922 4.93979L19.0604 7.00229C19.2004 7.14167 19.3115 7.30733 19.3873 7.48978C19.4631 7.67222 19.5022 7.86784 19.5022 8.06541C19.5022 8.26298 19.4631 8.45861 19.3873 8.64105C19.3115 8.82349 19.2004 8.98916 19.0604 9.12854V9.12573Z" fill="#0494DC"/>
</svg>
