<svg width="24" height="24" viewBox="0 0 24 24" fill="none" xmlns="http://www.w3.org/2000/svg">
<path fill-rule="evenodd" clip-rule="evenodd" d="M6.25281 22.0013C5.01071 22.0013 4.00391 20.9945 4.00391 19.7524V19.177C4.00391 18.2827 4.32351 17.4179 4.90501 16.7385C6.47441 14.905 8.86161 14.0002 12.0069 14.0002C15.1528 14.0002 17.5388 14.9053 19.1051 16.7396C19.6849 17.4185 20.0034 18.282 20.0034 19.1748V19.7524C20.0034 20.9945 18.9965 22.0013 17.7545 22.0013L6.25281 22.0013ZM17.7545 20.5013L6.25281 20.5013C5.83921 20.5013 5.50391 20.166 5.50391 19.7524L5.50391 19.177C5.50391 18.6405 5.69561 18.1216 6.04461 17.7139C7.30101 16.246 9.26861 15.5002 12.0069 15.5002C14.7452 15.5002 16.7111 16.246 17.9644 17.7137C18.3123 18.121 18.5034 18.6391 18.5034 19.1748V19.7524C18.5034 20.166 18.1681 20.5013 17.7545 20.5013Z" fill="black"/>
<path fill-rule="evenodd" clip-rule="evenodd" d="M12 11.0024C14.0711 11.0024 15.75 9.32351 15.75 7.25244C15.75 5.18137 14.0711 3.50244 12 3.50244C9.92894 3.50244 8.25001 5.18137 8.25001 7.25244C8.25001 9.32351 9.92894 11.0024 12 11.0024ZM12 12.5024C14.8995 12.5024 17.25 10.1519 17.25 7.25244C17.25 4.35295 14.8995 2.00244 12 2.00244C9.10051 2.00244 6.75001 4.35295 6.75001 7.25244C6.75001 10.1519 9.10051 12.5024 12 12.5024Z" fill="black"/>
</svg>
