<svg width="320" height="320" viewBox="0 0 320 320" fill="none" xmlns="http://www.w3.org/2000/svg">
<rect width="320" height="320" rx="24" fill="#1F1F49"/>
<path d="M127.933 192.067C161.641 192.067 188.967 164.741 188.967 131.033V109.672C188.967 83.6628 170.726 70 153.872 70C137.018 70 118.778 83.6628 118.778 109.672V140.188C100.089 140.188 79.7936 156.021 71.1655 174.411C66.8703 183.566 75.0974 192.067 85.2098 192.067H127.933Z" fill="#35ADE9"/>
<path d="M127.933 192.067C127.933 158.359 155.259 131.033 188.967 131.033L210.328 131.033C236.337 131.033 250 149.274 250 166.128C250 182.982 236.337 201.222 210.328 201.222H179.812C179.812 219.911 163.979 240.206 145.589 248.835C136.434 253.13 127.933 244.903 127.933 234.79V192.067Z" fill="#35E9A1"/>
<path d="M188.967 131.033C188.967 164.741 161.641 192.067 127.933 192.067C127.933 158.359 155.259 131.033 188.967 131.033Z" fill="#35E9E3"/>
</svg>
