<svg width="24" height="24" viewBox="0 0 24 24" fill="none" xmlns="http://www.w3.org/2000/svg">
<path d="M19.4996 18.0549C19.7853 18.0568 20.0662 17.9825 20.3136 17.8396C20.5609 17.6968 20.7656 17.4906 20.9067 17.2423C21.0511 16.9944 21.1258 16.7128 21.1252 16.4265C21.1247 16.1397 21.0478 15.8583 20.9025 15.6111C20.3967 14.7395 19.6249 12.2277 19.6249 8.92993C19.6249 6.90766 18.8216 4.96821 17.3916 3.53824C15.9617 2.10828 14.0222 1.30493 11.9999 1.30493C9.97765 1.30493 8.0382 2.10828 6.60824 3.53824C5.17827 4.96821 4.37493 6.90766 4.37493 8.92993C4.37493 12.2289 3.60396 14.74 3.0982 15.6113C2.9543 15.8581 2.87799 16.1384 2.87696 16.4241C2.87594 16.7098 2.95023 16.9906 3.09236 17.2384C3.23448 17.4862 3.43942 17.6922 3.68651 17.8355C3.93359 17.9789 4.2141 18.0545 4.49976 18.0549H4.49993H19.4996ZM19.4996 18.0549C19.4994 18.0549 19.4993 18.0549 19.4991 18.0549L19.4999 17.9299M19.4996 18.0549H19.4999V17.9299M19.4999 17.9299H4.49993L20.7984 17.1799C20.6682 17.4092 20.4793 17.5995 20.2511 17.7314C20.0228 17.8632 19.7635 17.9318 19.4999 17.9299ZM17.8749 8.92993C17.8749 12.1647 18.5816 14.9519 19.2884 16.3049H4.7114C5.41745 14.9527 6.12493 12.1655 6.12493 8.92993C6.12493 7.37178 6.7439 5.87746 7.84568 4.77568C8.94745 3.6739 10.4418 3.05493 11.9999 3.05493C13.5581 3.05493 15.0524 3.6739 16.1542 4.77568C17.256 5.87746 17.8749 7.37178 17.8749 8.92993ZM10.2133 20.0951C9.8903 19.7357 9.33707 19.7061 8.97761 20.0291C8.61816 20.3521 8.58859 20.9053 8.91158 21.2648C10.6398 23.1881 13.3737 23.1623 15.082 21.2655C15.4053 20.9064 15.3764 20.3531 15.0173 20.0297C14.6582 19.7064 14.105 19.7353 13.7816 20.0944C13.2683 20.6643 12.6314 20.9463 11.9998 20.9477C11.3683 20.9491 10.73 20.6701 10.2133 20.0951Z" fill="#333333" stroke="#333333" stroke-width="0.25"/>
</svg>
