<svg width="28" height="28" viewBox="0 0 28 28" fill="none" xmlns="http://www.w3.org/2000/svg">
<path d="M14 2.625C12.0362 2.62457 10.1057 3.1326 8.39638 4.09963C6.68711 5.06665 5.25731 6.45974 4.24617 8.1433C3.23502 9.82685 2.67697 11.7435 2.62634 13.7067C2.57571 15.6699 3.03421 17.6128 3.95723 19.3463L2.71582 23.0705C2.61299 23.3788 2.59807 23.7097 2.67273 24.026C2.74738 24.3424 2.90867 24.6317 3.1385 24.8615C3.36834 25.0914 3.65765 25.2527 3.97399 25.3273C4.29034 25.402 4.62123 25.387 4.92957 25.2842L8.65379 24.0428C10.1793 24.8542 11.8697 25.3074 13.5965 25.368C15.3233 25.4286 17.0412 25.095 18.6199 24.3925C20.1985 23.69 21.5964 22.6372 22.7074 21.3138C23.8184 19.9904 24.6133 18.4313 25.0317 16.7549C25.4502 15.0784 25.4813 13.3287 25.1225 11.6384C24.7638 9.94817 24.0247 8.36187 22.9614 6.99991C21.8981 5.63795 20.5384 4.53613 18.9857 3.77809C17.433 3.02005 15.7279 2.62571 14 2.625ZM9.18754 15.3125C8.92795 15.3125 8.6742 15.2355 8.45836 15.0913C8.24252 14.9471 8.07429 14.7421 7.97495 14.5023C7.87561 14.2624 7.84962 13.9985 7.90026 13.7439C7.9509 13.4893 8.07591 13.2555 8.25946 13.0719C8.44302 12.8884 8.67689 12.7634 8.93149 12.7127C9.18609 12.6621 9.44999 12.6881 9.68981 12.7874C9.92964 12.8867 10.1346 13.055 10.2788 13.2708C10.4231 13.4867 10.5 13.7404 10.5 14C10.5 14.3481 10.3618 14.6819 10.1156 14.9281C9.86948 15.1742 9.53564 15.3125 9.18754 15.3125ZM14 15.3125C13.7405 15.3125 13.4867 15.2355 13.2709 15.0913C13.055 14.9471 12.8868 14.7421 12.7874 14.5023C12.6881 14.2624 12.6621 13.9985 12.7128 13.7439C12.7634 13.4893 12.8884 13.2555 13.072 13.0719C13.2555 12.8884 13.4894 12.7634 13.744 12.7127C13.9986 12.6621 14.2625 12.6881 14.5023 12.7874C14.7421 12.8867 14.9471 13.055 15.0913 13.2708C15.2356 13.4867 15.3125 13.7404 15.3125 14C15.3125 14.3481 15.1743 14.6819 14.9281 14.9281C14.682 15.1742 14.3481 15.3125 14 15.3125ZM18.8125 15.3125C18.553 15.3125 18.2992 15.2355 18.0834 15.0913C17.8675 14.9471 17.6993 14.7421 17.6 14.5023C17.5006 14.2624 17.4746 13.9985 17.5253 13.7439C17.5759 13.4893 17.7009 13.2555 17.8845 13.0719C18.068 12.8884 18.3019 12.7634 18.5565 12.7127C18.8111 12.6621 19.075 12.6881 19.3148 12.7874C19.5546 12.8867 19.7596 13.055 19.9038 13.2708C20.0481 13.4867 20.125 13.7404 20.125 14C20.125 14.3481 19.9868 14.6819 19.7406 14.9281C19.4945 15.1742 19.1606 15.3125 18.8125 15.3125Z" fill="#35ADE9"/>
</svg>
