<svg width="45" height="60" viewBox="0 0 45 60" fill="none" xmlns="http://www.w3.org/2000/svg">
<path d="M23 1H5C2.79086 1 1 2.79086 1 5V39C1 41.2091 2.79086 43 5 43H23C25.2091 43 27 41.2091 27 39V5C27 2.79086 25.2091 1 23 1Z" fill="#5AAAE7"/>
<path d="M39 25C41.7614 25 44 22.7614 44 20C44 17.2386 41.7614 15 39 15C36.2386 15 34 17.2386 34 20C34 22.7614 36.2386 25 39 25Z" fill="#C6C5CA"/>
<path d="M16 29V32C16 32.2652 15.8946 32.5196 15.7071 32.7071C15.5196 32.8946 15.2652 33 15 33H13C12.7348 33 12.4804 32.8946 12.2929 32.7071C12.1054 32.5196 12 32.2652 12 32V29H16Z" fill="#D8D7DA"/>
<path d="M9 4H7V6H9V4Z" fill="black"/>
<path d="M17 4H11V6H17V4Z" fill="black"/>
<path d="M39 14C37.5016 14.0087 36.0607 14.5777 34.9607 15.5951C33.8607 16.6125 33.1812 18.0047 33.0558 19.4979C32.9304 20.991 33.3683 22.4771 34.2832 23.6637C35.1982 24.8503 36.5241 25.6516 38 25.91V46.5C38 49.55 36.7884 52.4751 34.6317 54.6317C32.4751 56.7884 29.55 58 26.5 58C23.45 58 20.5249 56.7884 18.3683 54.6317C16.2116 52.4751 15 49.55 15 46.5V44H23C24.3261 44 25.5979 43.4732 26.5355 42.5355C27.4732 41.5979 28 40.3261 28 39V5C28 3.67392 27.4732 2.40215 26.5355 1.46447C25.5979 0.526784 24.3261 0 23 0H5C3.67392 0 2.40215 0.526784 1.46447 1.46447C0.526784 2.40215 0 3.67392 0 5V39C0 40.3261 0.526784 41.5979 1.46447 42.5355C2.40215 43.4732 3.67392 44 5 44H13V46.5C13 50.0804 14.4223 53.5142 16.9541 56.0459C19.4858 58.5777 22.9196 60 26.5 60C30.0804 60 33.5142 58.5777 36.0459 56.0459C38.5777 53.5142 40 50.0804 40 46.5V25.91C41.4759 25.6516 42.8018 24.8503 43.7168 23.6637C44.6317 22.4771 45.0696 20.991 44.9442 19.4979C44.8188 18.0047 44.1393 16.6125 43.0393 15.5951C41.9393 14.5777 40.4984 14.0087 39 14ZM13 42H5C4.20508 41.9976 3.4434 41.6808 2.8813 41.1187C2.31921 40.5566 2.00237 39.7949 2 39V5C2.00237 4.20508 2.31921 3.4434 2.8813 2.8813C3.4434 2.31921 4.20508 2.00237 5 2H23C23.7949 2.00237 24.5566 2.31921 25.1187 2.8813C25.6808 3.4434 25.9976 4.20508 26 5V39C25.9976 39.7949 25.6808 40.5566 25.1187 41.1187C24.5566 41.6808 23.7949 41.9976 23 42H15V34C15.5299 33.9984 16.0377 33.7872 16.4125 33.4125C16.7872 33.0377 16.9984 32.5299 17 32V30C18.3261 30 19.5979 29.4732 20.5355 28.5355C21.4732 27.5979 22 26.3261 22 25V15C22.0008 14.815 21.9497 14.6336 21.8525 14.4762C21.7552 14.3189 21.6158 14.192 21.45 14.11L19.87 13.32C19.7204 12.911 19.4411 12.5622 19.0747 12.3268C18.7084 12.0914 18.275 11.9823 17.8409 12.0163C17.4067 12.0502 16.9956 12.2253 16.6702 12.5148C16.3449 12.8043 16.1232 13.1923 16.039 13.6195C15.9548 14.0468 16.0127 14.4899 16.2039 14.8812C16.3952 15.2724 16.7091 15.5904 17.098 15.7865C17.4868 15.9826 17.9291 16.0461 18.3574 15.9673C18.7857 15.8885 19.1764 15.6717 19.47 15.35L20 15.62V25C19.9976 25.7949 19.6808 26.5566 19.1187 27.1187C18.5566 27.6808 17.7949 27.9976 17 28H11C10.2051 27.9976 9.4434 27.6808 8.8813 27.1187C8.31921 26.5566 8.00237 25.7949 8 25V15.62L8.53 15.35C8.82397 15.6731 9.21565 15.8911 9.64518 15.9707C10.0747 16.0502 10.5185 15.9869 10.9087 15.7905C11.2989 15.5941 11.614 15.2753 11.8059 14.8829C11.9979 14.4905 12.0561 14.046 11.9716 13.6174C11.8872 13.1888 11.6647 12.7997 11.3383 12.5094C11.0118 12.2192 10.5993 12.0438 10.1638 12.0101C9.72822 11.9763 9.29362 12.0861 8.92637 12.3227C8.55912 12.5592 8.27942 12.9095 8.13 13.32L6.55 14.11C6.38421 14.192 6.24476 14.3189 6.14753 14.4762C6.05029 14.6336 5.99918 14.815 6 15V25C6 26.3261 6.52678 27.5979 7.46447 28.5355C8.40215 29.4732 9.67392 30 11 30V32C11.0016 32.5299 11.2128 33.0377 11.5875 33.4125C11.9623 33.7872 12.4701 33.9984 13 34V42ZM13 30H15V32H13V30ZM39 24C38.2089 24 37.4355 23.7654 36.7777 23.3259C36.1199 22.8864 35.6072 22.2616 35.3045 21.5307C35.0017 20.7998 34.9225 19.9956 35.0769 19.2196C35.2312 18.4437 35.6122 17.731 36.1716 17.1716C36.731 16.6122 37.4437 16.2312 38.2196 16.0769C38.9956 15.9225 39.7998 16.0017 40.5307 16.3045C41.2616 16.6072 41.8864 17.1199 42.3259 17.7777C42.7654 18.4355 43 19.2089 43 20C43 21.0609 42.5786 22.0783 41.8284 22.8284C41.0783 23.5786 40.0609 24 39 24Z" fill="black"/>
<path d="M39 22C40.1046 22 41 21.1046 41 20C41 18.8954 40.1046 18 39 18C37.8954 18 37 18.8954 37 20C37 21.1046 37.8954 22 39 22Z" fill="black"/>
</svg>
