<svg width="60" height="44" viewBox="0 0 60 44" fill="none" xmlns="http://www.w3.org/2000/svg">
<path d="M59 27V35C58.9984 35.5299 58.7872 36.0377 58.4125 36.4125C58.0377 36.7872 57.5299 36.9984 57 37H11C10.4701 36.9984 9.96227 36.7872 9.58753 36.4125C9.2128 36.0377 9.00158 35.5299 9 35V15C9 13.9391 9.42143 12.9217 10.1716 12.1716C10.9217 11.4214 11.9391 11 13 11H45.17C45.4339 11.0001 45.6951 11.0523 45.9388 11.1535C46.1824 11.2548 46.4037 11.4031 46.59 11.59L50 15H45C44.7348 15 44.4804 15.1054 44.2929 15.2929C44.1054 15.4804 44 15.7348 44 16V26C44 26.2652 44.1054 26.5196 44.2929 26.7071C44.4804 26.8946 44.7348 27 45 27H59Z" fill="#5AAAE7"/>
<path d="M59 24.83V27H45C44.7348 27 44.4804 26.8946 44.2929 26.7071C44.1054 26.5196 44 26.2652 44 26V16C44 15.7348 44.1054 15.4804 44.2929 15.2929C44.4804 15.1054 44.7348 15 45 15H50L58.41 23.41C58.5969 23.5963 58.7452 23.8176 58.8465 24.0612C58.9477 24.3049 58.9999 24.5661 59 24.83Z" fill="#E6E7E8"/>
<path d="M48 43C51.3137 43 54 40.3137 54 37C54 33.6863 51.3137 31 48 31C44.6863 31 42 33.6863 42 37C42 40.3137 44.6863 43 48 43Z" fill="#787680"/>
<path d="M48 39C49.1046 39 50 38.1046 50 37C50 35.8954 49.1046 35 48 35C46.8954 35 46 35.8954 46 37C46 38.1046 46.8954 39 48 39Z" fill="#57565C"/>
<path d="M42 9V11H38V9C38 8.46957 38.2107 7.96086 38.5858 7.58579C38.9609 7.21071 39.4696 7 40 7C40.5304 7 41.0391 7.21071 41.4142 7.58579C41.7893 7.96086 42 8.46957 42 9Z" fill="#FF5023"/>
<path d="M35 22V26H31V30H27V26H23V22H27V18H31V22H35Z" fill="#3D9AE2"/>
<path d="M33 20V24H29V28H25V24H21V20H25V16H29V20H33Z" fill="#FF9811"/>
<path d="M20 43C23.3137 43 26 40.3137 26 37C26 33.6863 23.3137 31 20 31C16.6863 31 14 33.6863 14 37C14 40.3137 16.6863 43 20 43Z" fill="#787680"/>
<path d="M20 39C21.1046 39 22 38.1046 22 37C22 35.8954 21.1046 35 20 35C18.8954 35 18 35.8954 18 37C18 38.1046 18.8954 39 20 39Z" fill="#57565C"/>
<path d="M57 38C57.7949 37.9976 58.5566 37.6808 59.1187 37.1187C59.6808 36.5566 59.9976 35.7949 60 35V24.83C60.001 24.4345 59.9237 24.0427 59.7727 23.6771C59.6217 23.3116 59.3998 22.9795 59.12 22.7L47.3 10.88C47.0205 10.6001 46.6884 10.3783 46.3229 10.2273C45.9573 10.0763 45.5655 9.99903 45.17 10H43V9C43 8.20435 42.6839 7.44129 42.1213 6.87868C41.5587 6.31607 40.7957 6 40 6C39.2043 6 38.4413 6.31607 37.8787 6.87868C37.3161 7.44129 37 8.20435 37 9V10H13C11.6739 10 10.4021 10.5268 9.46447 11.4645C8.52678 12.4021 8 13.6739 8 15V35C8.00237 35.7949 8.31921 36.5566 8.8813 37.1187C9.4434 37.6808 10.2051 37.9976 11 38H13.08C13.2973 39.5206 14.0109 40.9269 15.11 42H0V44H60V42H52.89C53.9891 40.9269 54.7027 39.5206 54.92 38H57ZM57.7 24.12C57.7945 24.2126 57.8697 24.3231 57.9212 24.4449C57.9727 24.5668 57.9995 24.6977 58 24.83V26H45V16H49.59L57.7 24.12ZM39 9C39 8.73478 39.1054 8.48043 39.2929 8.29289C39.4804 8.10536 39.7348 8 40 8C40.2652 8 40.5196 8.10536 40.7071 8.29289C40.8946 8.48043 41 8.73478 41 9V10H39V9ZM20 42C19.0111 42 18.0444 41.7068 17.2221 41.1573C16.3999 40.6079 15.759 39.827 15.3806 38.9134C15.0022 37.9998 14.9031 36.9945 15.0961 36.0245C15.289 35.0546 15.7652 34.1637 16.4645 33.4645C17.1637 32.7652 18.0546 32.289 19.0245 32.0961C19.9945 31.9031 20.9998 32.0022 21.9134 32.3806C22.827 32.759 23.6079 33.3999 24.1573 34.2221C24.7068 35.0444 25 36.0111 25 37C25 38.3261 24.4732 39.5979 23.5355 40.5355C22.5979 41.4732 21.3261 42 20 42ZM24.89 42C25.9891 40.9269 26.7027 39.5206 26.92 38H41.08C41.2973 39.5206 42.0109 40.9269 43.11 42H24.89ZM48 42C47.0111 42 46.0444 41.7068 45.2221 41.1573C44.3999 40.6079 43.759 39.827 43.3806 38.9134C43.0022 37.9998 42.9031 36.9945 43.0961 36.0245C43.289 35.0546 43.7652 34.1637 44.4645 33.4645C45.1637 32.7652 46.0546 32.289 47.0245 32.0961C47.9945 31.9031 48.9998 32.0022 49.9134 32.3806C50.827 32.759 51.6079 33.3999 52.1573 34.2221C52.7068 35.0444 53 36.0111 53 37C53 38.3261 52.4732 39.5979 51.5355 40.5355C50.5979 41.4732 49.3261 42 48 42ZM48 30C46.3182 30.002 44.6932 30.6094 43.4225 31.7112C42.1518 32.813 41.3203 34.3354 41.08 36H26.92C26.6809 34.3351 25.8496 32.8123 24.5786 31.7107C23.3075 30.6092 21.6819 30.0028 20 30.0028C18.3181 30.0028 16.6925 30.6092 15.4214 31.7107C14.1504 32.8123 13.3191 34.3351 13.08 36H11C10.7348 36 10.4804 35.8946 10.2929 35.7071C10.1054 35.5196 10 35.2652 10 35V15C10.0024 14.2051 10.3192 13.4434 10.8813 12.8813C11.4434 12.3192 12.2051 12.0024 13 12H45.17C45.3023 12.0005 45.4332 12.0273 45.5551 12.0788C45.6769 12.1303 45.7874 12.2055 45.88 12.3L47.59 14H45C44.4701 14.0016 43.9623 14.2128 43.5875 14.5875C43.2128 14.9623 43.0016 15.4701 43 16V26C43.0016 26.5299 43.2128 27.0377 43.5875 27.4125C43.9623 27.7872 44.4701 27.9984 45 28H58V35C58 35.2652 57.8946 35.5196 57.7071 35.7071C57.5196 35.8946 57.2652 36 57 36H54.92C54.6797 34.3354 53.8482 32.813 52.5775 31.7112C51.3068 30.6094 49.6818 30.002 48 30Z" fill="black"/>
<path d="M5 33H0V35H5V33Z" fill="black"/>
<path d="M5 29H2V31H5V29Z" fill="black"/>
<path d="M5 25H3V27H5V25Z" fill="black"/>
<path d="M30 4H14V6H30V4Z" fill="black"/>
<path d="M12 4H10V6H12V4Z" fill="black"/>
<path d="M26 0H8V2H26V0Z" fill="black"/>
<path d="M6 0H4V2H6V0Z" fill="black"/>
<path d="M20 34C19.4067 34 18.8266 34.1759 18.3333 34.5056C17.8399 34.8352 17.4554 35.3038 17.2284 35.852C17.0013 36.4001 16.9419 37.0033 17.0576 37.5853C17.1734 38.1672 17.4591 38.7018 17.8787 39.1213C18.2982 39.5409 18.8328 39.8266 19.4147 39.9424C19.9967 40.0581 20.5999 39.9987 21.1481 39.7716C21.6962 39.5446 22.1648 39.1601 22.4944 38.6667C22.8241 38.1734 23 37.5933 23 37C23 36.2044 22.6839 35.4413 22.1213 34.8787C21.5587 34.3161 20.7957 34 20 34ZM20 38C19.8022 38 19.6089 37.9414 19.4444 37.8315C19.28 37.7216 19.1518 37.5654 19.0761 37.3827C19.0004 37.2 18.9806 36.9989 19.0192 36.8049C19.0578 36.6109 19.153 36.4327 19.2929 36.2929C19.4327 36.153 19.6109 36.0578 19.8049 36.0192C19.9989 35.9806 20.2 36.0004 20.3827 36.0761C20.5654 36.1518 20.7216 36.28 20.8315 36.4444C20.9414 36.6089 21 36.8022 21 37C21 37.2652 20.8946 37.5196 20.7071 37.7071C20.5196 37.8946 20.2652 38 20 38Z" fill="black"/>
<path d="M48 34C47.4067 34 46.8266 34.1759 46.3333 34.5056C45.8399 34.8352 45.4554 35.3038 45.2284 35.852C45.0013 36.4001 44.9419 37.0033 45.0576 37.5853C45.1734 38.1672 45.4591 38.7018 45.8787 39.1213C46.2982 39.5409 46.8328 39.8266 47.4147 39.9424C47.9967 40.0581 48.5999 39.9987 49.148 39.7716C49.6962 39.5446 50.1648 39.1601 50.4944 38.6667C50.8241 38.1734 51 37.5933 51 37C51 36.2044 50.6839 35.4413 50.1213 34.8787C49.5587 34.3161 48.7957 34 48 34ZM48 38C47.8022 38 47.6089 37.9414 47.4444 37.8315C47.28 37.7216 47.1518 37.5654 47.0761 37.3827C47.0004 37.2 46.9806 36.9989 47.0192 36.8049C47.0578 36.6109 47.153 36.4327 47.2929 36.2929C47.4327 36.153 47.6109 36.0578 47.8049 36.0192C47.9989 35.9806 48.2 36.0004 48.3827 36.0761C48.5654 36.1518 48.7216 36.28 48.8315 36.4444C48.9414 36.6089 49 36.8022 49 37C49 37.2652 48.8946 37.5196 48.7071 37.7071C48.5196 37.8946 48.2652 38 48 38Z" fill="black"/>
<path d="M21 25H24V28C24 28.2652 24.1054 28.5196 24.2929 28.7071C24.4804 28.8946 24.7348 29 25 29H29C29.2652 29 29.5196 28.8946 29.7071 28.7071C29.8946 28.5196 30 28.2652 30 28V25H33C33.2652 25 33.5196 24.8946 33.7071 24.7071C33.8946 24.5196 34 24.2652 34 24V20C34 19.7348 33.8946 19.4804 33.7071 19.2929C33.5196 19.1054 33.2652 19 33 19H30V16C30 15.7348 29.8946 15.4804 29.7071 15.2929C29.5196 15.1054 29.2652 15 29 15H25C24.7348 15 24.4804 15.1054 24.2929 15.2929C24.1054 15.4804 24 15.7348 24 16V19H21C20.7348 19 20.4804 19.1054 20.2929 19.2929C20.1054 19.4804 20 19.7348 20 20V24C20 24.2652 20.1054 24.5196 20.2929 24.7071C20.4804 24.8946 20.7348 25 21 25ZM22 21H25C25.2652 21 25.5196 20.8946 25.7071 20.7071C25.8946 20.5196 26 20.2652 26 20V17H28V20C28 20.2652 28.1054 20.5196 28.2929 20.7071C28.4804 20.8946 28.7348 21 29 21H32V23H29C28.7348 23 28.4804 23.1054 28.2929 23.2929C28.1054 23.4804 28 23.7348 28 24V27H26V24C26 23.7348 25.8946 23.4804 25.7071 23.2929C25.5196 23.1054 25.2652 23 25 23H22V21Z" fill="black"/>
<path d="M41 0H39V4H41V0Z" fill="black"/>
<path d="M46.2932 1.29223L43.293 4.29248L44.7072 5.70669L47.7074 2.70644L46.2932 1.29223Z" fill="black"/>
<path d="M33.7069 1.29282L32.2927 2.70703L35.293 5.70729L36.7072 4.29307L33.7069 1.29282Z" fill="black"/>
</svg>
