<svg width="28" height="28" viewBox="0 0 28 28" fill="none" xmlns="http://www.w3.org/2000/svg">
<path d="M10.6834 24.2335V20.6556C10.6834 19.7456 11.4253 19.0061 12.3445 19H15.7116C16.6352 19 17.3839 19.7413 17.3839 20.6556V24.2446C17.3837 25.0172 18.0066 25.6487 18.7868 25.6668H21.0316C23.2693 25.6668 25.0833 23.871 25.0833 21.6556V11.4776C25.0713 10.6061 24.658 9.78774 23.9609 9.25537L16.284 3.13301C14.939 2.06699 13.0272 2.06699 11.6823 3.13301L4.03899 9.26648C3.33926 9.79669 2.92524 10.6164 2.91663 11.4887V21.6556C2.91663 23.871 4.73065 25.6668 6.96836 25.6668H9.21308C10.0127 25.6668 10.6609 25.0251 10.6609 24.2335" stroke="#7A7A7A" stroke-width="1.75" stroke-linecap="round" stroke-linejoin="round"/>
</svg>
