<svg width="64" height="64" viewBox="0 0 64 64" fill="none" xmlns="http://www.w3.org/2000/svg">
<path d="M18 25H6V57H18V25Z" fill="#3D9AE2"/>
<path d="M58 25H46V57H58V25Z" fill="#3D9AE2"/>
<path d="M46 13H18V57H46V13Z" fill="#3D9AE2"/>
<path d="M61 57V61H3V57H6H18H26H32H38H46H58H61Z" fill="#1E81CE"/>
<path d="M14 37H10V41H14V37Z" fill="#BDDBFF"/>
<path d="M14 29H10V33H14V29Z" fill="#BDDBFF"/>
<path d="M14 45H10V49H14V45Z" fill="#BDDBFF"/>
<path d="M24 5H40V13V17H24V13V5Z" fill="#E6E7E8"/>
<path d="M26 21H22V25H26V21Z" fill="#BDDBFF"/>
<path d="M42 21H38V25H42V21Z" fill="#BDDBFF"/>
<path d="M34 21H30V25H34V21Z" fill="#BDDBFF"/>
<path d="M34 29H30V33H34V29Z" fill="#BDDBFF"/>
<path d="M26 29H22V33H26V29Z" fill="#BDDBFF"/>
<path d="M42 29H38V33H42V29Z" fill="#BDDBFF"/>
<path d="M34 37H30V41H34V37Z" fill="#BDDBFF"/>
<path d="M26 37H22V41H26V37Z" fill="#BDDBFF"/>
<path d="M42 37H38V41H42V37Z" fill="#BDDBFF"/>
<path d="M32 45H26V57H32V45Z" fill="#BDDBFF"/>
<path d="M38 45H32V57H38V45Z" fill="#BDDBFF"/>
<path d="M54 45H50V49H54V45Z" fill="#BDDBFF"/>
<path d="M54 37H50V41H54V37Z" fill="#BDDBFF"/>
<path d="M54 29H50V33H54V29Z" fill="#BDDBFF"/>
<path d="M48 25H46V57H48V25Z" fill="#1E81CE"/>
<path d="M18 25H16V57H18V25Z" fill="#1E81CE"/>
<path d="M40 17H24V19H40V17Z" fill="#1E81CE"/>
<path d="M26 21H22V23H26V21Z" fill="#9BC9FF"/>
<path d="M34 21H30V23H34V21Z" fill="#9BC9FF"/>
<path d="M42 21H38V23H42V21Z" fill="#9BC9FF"/>
<path d="M26 29H22V31H26V29Z" fill="#9BC9FF"/>
<path d="M34 29H30V31H34V29Z" fill="#9BC9FF"/>
<path d="M42 29H38V31H42V29Z" fill="#9BC9FF"/>
<path d="M26 37H22V39H26V37Z" fill="#9BC9FF"/>
<path d="M34 37H30V39H34V37Z" fill="#9BC9FF"/>
<path d="M42 37H38V39H42V37Z" fill="#9BC9FF"/>
<path d="M54 29H50V31H54V29Z" fill="#9BC9FF"/>
<path d="M54 37H50V39H54V37Z" fill="#9BC9FF"/>
<path d="M54 45H50V47H54V45Z" fill="#9BC9FF"/>
<path d="M14 29H10V31H14V29Z" fill="#9BC9FF"/>
<path d="M14 37H10V39H14V37Z" fill="#9BC9FF"/>
<path d="M14 45H10V47H14V45Z" fill="#9BC9FF"/>
<path d="M32 45H26V47H32V45Z" fill="#9BC9FF"/>
<path d="M38 45H32V47H38V45Z" fill="#9BC9FF"/>
<path d="M61 56H59V25C59 24.7348 58.8946 24.4804 58.7071 24.2929C58.5196 24.1054 58.2652 24 58 24H47V20H45V56H39V45C39 44.7348 38.8946 44.4804 38.7071 44.2929C38.5196 44.1054 38.2652 44 38 44H26C25.7348 44 25.4804 44.1054 25.2929 44.2929C25.1054 44.4804 25 44.7348 25 45V56H19V14H23V17C23 17.2652 23.1054 17.5196 23.2929 17.7071C23.4804 17.8946 23.7348 18 24 18H40C40.2652 18 40.5196 17.8946 40.7071 17.7071C40.8946 17.5196 41 17.2652 41 17V14H45V18H47V13C47 12.7348 46.8946 12.4804 46.7071 12.2929C46.5196 12.1054 46.2652 12 46 12H41V5C41 4.73478 40.8946 4.48043 40.7071 4.29289C40.5196 4.10536 40.2652 4 40 4H24C23.7348 4 23.4804 4.10536 23.2929 4.29289C23.1054 4.48043 23 4.73478 23 5V12H18C17.7348 12 17.4804 12.1054 17.2929 12.2929C17.1054 12.4804 17 12.7348 17 13V24H6C5.73478 24 5.48043 24.1054 5.29289 24.2929C5.10536 24.4804 5 24.7348 5 25V50H7V26H17V56H7V52H5V56H3C2.73478 56 2.48043 56.1054 2.29289 56.2929C2.10536 56.4804 2 56.7348 2 57V61C2 61.2652 2.10536 61.5196 2.29289 61.7071C2.48043 61.8946 2.73478 62 3 62H61C61.2652 62 61.5196 61.8946 61.7071 61.7071C61.8946 61.5196 62 61.2652 62 61V57C62 56.7348 61.8946 56.4804 61.7071 56.2929C61.5196 56.1054 61.2652 56 61 56ZM25 6H39V16H25V6ZM47 26H57V56H47V26ZM33 46H37V56H33V46ZM27 46H31V56H27V46ZM60 60H4V58H60V60Z" fill="black"/>
<path d="M34 36H30C29.7348 36 29.4804 36.1054 29.2929 36.2929C29.1054 36.4804 29 36.7348 29 37V41C29 41.2652 29.1054 41.5196 29.2929 41.7071C29.4804 41.8946 29.7348 42 30 42H34C34.2652 42 34.5196 41.8946 34.7071 41.7071C34.8946 41.5196 35 41.2652 35 41V37C35 36.7348 34.8946 36.4804 34.7071 36.2929C34.5196 36.1054 34.2652 36 34 36ZM33 40H31V38H33V40Z" fill="black"/>
<path d="M42 36H38C37.7348 36 37.4804 36.1054 37.2929 36.2929C37.1054 36.4804 37 36.7348 37 37V41C37 41.2652 37.1054 41.5196 37.2929 41.7071C37.4804 41.8946 37.7348 42 38 42H42C42.2652 42 42.5196 41.8946 42.7071 41.7071C42.8946 41.5196 43 41.2652 43 41V37C43 36.7348 42.8946 36.4804 42.7071 36.2929C42.5196 36.1054 42.2652 36 42 36ZM41 40H39V38H41V40Z" fill="black"/>
<path d="M35 29C35 28.7348 34.8946 28.4804 34.7071 28.2929C34.5196 28.1054 34.2652 28 34 28H30C29.7348 28 29.4804 28.1054 29.2929 28.2929C29.1054 28.4804 29 28.7348 29 29V33C29 33.2652 29.1054 33.5196 29.2929 33.7071C29.4804 33.8946 29.7348 34 30 34H34C34.2652 34 34.5196 33.8946 34.7071 33.7071C34.8946 33.5196 35 33.2652 35 33V29ZM33 32H31V30H33V32Z" fill="black"/>
<path d="M43 29C43 28.7348 42.8946 28.4804 42.7071 28.2929C42.5196 28.1054 42.2652 28 42 28H38C37.7348 28 37.4804 28.1054 37.2929 28.2929C37.1054 28.4804 37 28.7348 37 29V33C37 33.2652 37.1054 33.5196 37.2929 33.7071C37.4804 33.8946 37.7348 34 38 34H42C42.2652 34 42.5196 33.8946 42.7071 33.7071C42.8946 33.5196 43 33.2652 43 33V29ZM41 32H39V30H41V32Z" fill="black"/>
<path d="M26 36H22C21.7348 36 21.4804 36.1054 21.2929 36.2929C21.1054 36.4804 21 36.7348 21 37V41C21 41.2652 21.1054 41.5196 21.2929 41.7071C21.4804 41.8946 21.7348 42 22 42H26C26.2652 42 26.5196 41.8946 26.7071 41.7071C26.8946 41.5196 27 41.2652 27 41V37C27 36.7348 26.8946 36.4804 26.7071 36.2929C26.5196 36.1054 26.2652 36 26 36ZM25 40H23V38H25V40Z" fill="black"/>
<path d="M27 29C27 28.7348 26.8946 28.4804 26.7071 28.2929C26.5196 28.1054 26.2652 28 26 28H22C21.7348 28 21.4804 28.1054 21.2929 28.2929C21.1054 28.4804 21 28.7348 21 29V33C21 33.2652 21.1054 33.5196 21.2929 33.7071C21.4804 33.8946 21.7348 34 22 34H26C26.2652 34 26.5196 33.8946 26.7071 33.7071C26.8946 33.5196 27 33.2652 27 33V29ZM25 32H23V30H25V32Z" fill="black"/>
<path d="M35 21C35 20.7348 34.8946 20.4804 34.7071 20.2929C34.5196 20.1054 34.2652 20 34 20H30C29.7348 20 29.4804 20.1054 29.2929 20.2929C29.1054 20.4804 29 20.7348 29 21V25C29 25.2652 29.1054 25.5196 29.2929 25.7071C29.4804 25.8946 29.7348 26 30 26H34C34.2652 26 34.5196 25.8946 34.7071 25.7071C34.8946 25.5196 35 25.2652 35 25V21ZM33 24H31V22H33V24Z" fill="black"/>
<path d="M43 21C43 20.7348 42.8946 20.4804 42.7071 20.2929C42.5196 20.1054 42.2652 20 42 20H38C37.7348 20 37.4804 20.1054 37.2929 20.2929C37.1054 20.4804 37 20.7348 37 21V25C37 25.2652 37.1054 25.5196 37.2929 25.7071C37.4804 25.8946 37.7348 26 38 26H42C42.2652 26 42.5196 25.8946 42.7071 25.7071C42.8946 25.5196 43 25.2652 43 25V21ZM41 24H39V22H41V24Z" fill="black"/>
<path d="M54 44H50C49.7348 44 49.4804 44.1054 49.2929 44.2929C49.1054 44.4804 49 44.7348 49 45V49C49 49.2652 49.1054 49.5196 49.2929 49.7071C49.4804 49.8946 49.7348 50 50 50H54C54.2652 50 54.5196 49.8946 54.7071 49.7071C54.8946 49.5196 55 49.2652 55 49V45C55 44.7348 54.8946 44.4804 54.7071 44.2929C54.5196 44.1054 54.2652 44 54 44ZM53 48H51V46H53V48Z" fill="black"/>
<path d="M54 36H50C49.7348 36 49.4804 36.1054 49.2929 36.2929C49.1054 36.4804 49 36.7348 49 37V41C49 41.2652 49.1054 41.5196 49.2929 41.7071C49.4804 41.8946 49.7348 42 50 42H54C54.2652 42 54.5196 41.8946 54.7071 41.7071C54.8946 41.5196 55 41.2652 55 41V37C55 36.7348 54.8946 36.4804 54.7071 36.2929C54.5196 36.1054 54.2652 36 54 36ZM53 40H51V38H53V40Z" fill="black"/>
<path d="M54 28H50C49.7348 28 49.4804 28.1054 49.2929 28.2929C49.1054 28.4804 49 28.7348 49 29V33C49 33.2652 49.1054 33.5196 49.2929 33.7071C49.4804 33.8946 49.7348 34 50 34H54C54.2652 34 54.5196 33.8946 54.7071 33.7071C54.8946 33.5196 55 33.2652 55 33V29C55 28.7348 54.8946 28.4804 54.7071 28.2929C54.5196 28.1054 54.2652 28 54 28ZM53 32H51V30H53V32Z" fill="black"/>
<path d="M27 21C27 20.7348 26.8946 20.4804 26.7071 20.2929C26.5196 20.1054 26.2652 20 26 20H22C21.7348 20 21.4804 20.1054 21.2929 20.2929C21.1054 20.4804 21 20.7348 21 21V25C21 25.2652 21.1054 25.5196 21.2929 25.7071C21.4804 25.8946 21.7348 26 22 26H26C26.2652 26 26.5196 25.8946 26.7071 25.7071C26.8946 25.5196 27 25.2652 27 25V21ZM25 24H23V22H25V24Z" fill="black"/>
<path d="M9 49C9 49.2652 9.10536 49.5196 9.29289 49.7071C9.48043 49.8946 9.73478 50 10 50H14C14.2652 50 14.5196 49.8946 14.7071 49.7071C14.8946 49.5196 15 49.2652 15 49V45C15 44.7348 14.8946 44.4804 14.7071 44.2929C14.5196 44.1054 14.2652 44 14 44H10C9.73478 44 9.48043 44.1054 9.29289 44.2929C9.10536 44.4804 9 44.7348 9 45V49ZM11 46H13V48H11V46Z" fill="black"/>
<path d="M9 41C9 41.2652 9.10536 41.5196 9.29289 41.7071C9.48043 41.8946 9.73478 42 10 42H14C14.2652 42 14.5196 41.8946 14.7071 41.7071C14.8946 41.5196 15 41.2652 15 41V37C15 36.7348 14.8946 36.4804 14.7071 36.2929C14.5196 36.1054 14.2652 36 14 36H10C9.73478 36 9.48043 36.1054 9.29289 36.2929C9.10536 36.4804 9 36.7348 9 37V41ZM11 38H13V40H11V38Z" fill="black"/>
<path d="M10 34H14C14.2652 34 14.5196 33.8946 14.7071 33.7071C14.8946 33.5196 15 33.2652 15 33V29C15 28.7348 14.8946 28.4804 14.7071 28.2929C14.5196 28.1054 14.2652 28 14 28H10C9.73478 28 9.48043 28.1054 9.29289 28.2929C9.10536 28.4804 9 28.7348 9 29V33C9 33.2652 9.10536 33.5196 9.29289 33.7071C9.48043 33.8946 9.73478 34 10 34ZM11 30H13V32H11V30Z" fill="black"/>
<path d="M33 8H31V10H29V12H31V14H33V12H35V10H33V8Z" fill="black"/>
</svg>
