<svg width="55" height="61" viewBox="0 0 55 61" fill="none" xmlns="http://www.w3.org/2000/svg">
<path d="M33 45C33.5299 45.0016 34.0377 45.2128 34.4125 45.5875C34.7872 45.9623 34.9984 46.4701 35 47C34.9961 47.5292 34.7841 48.0356 34.4099 48.4099C34.0356 48.7841 33.5292 48.9961 33 49H29C28.4701 48.9984 27.9623 48.7872 27.5875 48.4125C27.2128 48.0377 27.0016 47.5299 27 47C27.0039 46.4708 27.2159 45.9644 27.5901 45.5901C27.9643 45.2159 28.4708 45.0039 29 45H33Z" fill="#E6E7E8"/>
<path d="M48 7V47C48 48.5913 47.3679 50.1174 46.2426 51.2426C45.1174 52.3679 43.5913 53 42 53H20C18.4087 53 16.8826 52.3679 15.7574 51.2426C14.6321 50.1174 14 48.5913 14 47V7C14 5.4087 14.6321 3.88258 15.7574 2.75736C16.8826 1.63214 18.4087 1 20 1H42C43.5913 1 45.1174 1.63214 46.2426 2.75736C47.3679 3.88258 48 5.4087 48 7ZM35 47C34.9984 46.4701 34.7872 45.9623 34.4125 45.5875C34.0377 45.2128 33.5299 45.0016 33 45H29C28.4708 45.0039 27.9643 45.2159 27.5901 45.5901C27.2159 45.9644 27.0039 46.4708 27 47C27.0016 47.5299 27.2128 48.0377 27.5875 48.4125C27.9623 48.7872 28.4701 48.9984 29 49H33C33.5292 48.9961 34.0356 48.7841 34.4099 48.4099C34.7841 48.0356 34.9961 47.5292 35 47Z" fill="#5AAAE7"/>
<path d="M33 37C38.5228 37 43 32.5228 43 27C43 21.4772 38.5228 17 33 17C27.4772 17 23 21.4772 23 27C23 32.5228 27.4772 37 33 37Z" fill="#3D9AE2"/>
<path d="M31 35C36.5228 35 41 30.5228 41 25C41 19.4772 36.5228 15 31 15C25.4772 15 21 19.4772 21 25C21 30.5228 25.4772 35 31 35Z" fill="#1E81CE"/>
<path d="M37 23V27H33V31H29V27H25V23H29V19H33V23H37Z" fill="#FF9811"/>
<path d="M51 39C51.7956 39 52.5587 39.3161 53.1213 39.8787C53.6839 40.4413 54 41.2044 54 42C54 42.7956 53.6839 43.5587 53.1213 44.1213C52.5587 44.6839 51.7956 45 51 45H47C46.2044 45 45.4413 44.6839 44.8787 44.1213C44.3161 43.5587 44 42.7956 44 42C44 41.2044 44.3161 40.4413 44.8787 39.8787C45.4413 39.3161 46.2044 39 47 39H51Z" fill="#FF8547"/>
<path d="M51 33C51.7956 33 52.5587 33.3161 53.1213 33.8787C53.6839 34.4413 54 35.2044 54 36C54 36.7956 53.6839 37.5587 53.1213 38.1213C52.5587 38.6839 51.7956 39 51 39H47C46.2044 39 45.4413 38.6839 44.8787 38.1213C44.3161 37.5587 44 36.7956 44 36C44 35.2044 44.3161 34.4413 44.8787 33.8787C45.4413 33.3161 46.2044 33 47 33H51Z" fill="#FF8547"/>
<path d="M51 27C51.7956 27 52.5587 27.3161 53.1213 27.8787C53.6839 28.4413 54 29.2044 54 30C54 30.7956 53.6839 31.5587 53.1213 32.1213C52.5587 32.6839 51.7956 33 51 33H47C46.2044 33 45.4413 32.6839 44.8787 32.1213C44.3161 31.5587 44 30.7956 44 30C44 29.2044 44.3161 28.4413 44.8787 27.8787C45.4413 27.3161 46.2044 27 47 27H51Z" fill="#FF8547"/>
<path d="M51 21C51.7956 21 52.5587 21.3161 53.1213 21.8787C53.6839 22.4413 54 23.2044 54 24C54 24.7956 53.6839 25.5587 53.1213 26.1213C52.5587 26.6839 51.7956 27 51 27H47C46.2044 27 45.4413 26.6839 44.8787 26.1213C44.3161 25.5587 44 24.7956 44 24C44 23.2044 44.3161 22.4413 44.8787 21.8787C45.4413 21.3161 46.2044 21 47 21H51Z" fill="#FF8547"/>
<path d="M35 53L28 60H1V52L8 45V13H11C11.7956 13 12.5587 13.3161 13.1213 13.8787C13.6839 14.4413 14 15.2044 14 16V24L15 25.67C16.3089 27.8472 17.0003 30.3397 17 32.88V34.33C16.9985 36.3271 16.456 38.2865 15.43 40L14 42V47C14 48.5913 14.6321 50.1174 15.7574 51.2426C16.8826 52.3679 18.4087 53 20 53H35Z" fill="#FF8547"/>
<path d="M37 22H34V19C34 18.7348 33.8946 18.4804 33.7071 18.2929C33.5196 18.1054 33.2652 18 33 18H29C28.7348 18 28.4804 18.1054 28.2929 18.2929C28.1054 18.4804 28 18.7348 28 19V22H25C24.7348 22 24.4804 22.1054 24.2929 22.2929C24.1054 22.4804 24 22.7348 24 23V27C24 27.2652 24.1054 27.5196 24.2929 27.7071C24.4804 27.8946 24.7348 28 25 28H28V31C28 31.2652 28.1054 31.5196 28.2929 31.7071C28.4804 31.8946 28.7348 32 29 32H33C33.2652 32 33.5196 31.8946 33.7071 31.7071C33.8946 31.5196 34 31.2652 34 31V28H37C37.2652 28 37.5196 27.8946 37.7071 27.7071C37.8946 27.5196 38 27.2652 38 27V23C38 22.7348 37.8946 22.4804 37.7071 22.2929C37.5196 22.1054 37.2652 22 37 22ZM36 26H33C32.7348 26 32.4804 26.1054 32.2929 26.2929C32.1054 26.4804 32 26.7348 32 27V30H30V27C30 26.7348 29.8946 26.4804 29.7071 26.2929C29.5196 26.1054 29.2652 26 29 26H26V24H29C29.2652 24 29.5196 23.8946 29.7071 23.7071C29.8946 23.5196 30 23.2652 30 23V20H32V23C32 23.2652 32.1054 23.5196 32.2929 23.7071C32.4804 23.8946 32.7348 24 33 24H36V26Z" fill="black"/>
<path d="M42 25C42 22.8244 41.3549 20.6977 40.1462 18.8887C38.9375 17.0798 37.2195 15.6699 35.2095 14.8373C33.1995 14.0048 30.9878 13.7869 28.854 14.2114C26.7202 14.6358 24.7602 15.6835 23.2218 17.2218C21.6835 18.7602 20.6358 20.7202 20.2114 22.854C19.7869 24.9878 20.0048 27.1995 20.8373 29.2095C21.6699 31.2195 23.0798 32.9375 24.8887 34.1462C26.6977 35.3549 28.8244 36 31 36C33.9163 35.9966 36.7122 34.8365 38.7744 32.7744C40.8365 30.7122 41.9966 27.9163 42 25ZM31 34C29.22 34 27.4799 33.4722 25.9999 32.4832C24.5198 31.4943 23.3663 30.0887 22.6851 28.4442C22.0039 26.7996 21.8257 24.99 22.1729 23.2442C22.5202 21.4984 23.3774 19.8947 24.636 18.636C25.8947 17.3774 27.4984 16.5202 29.2442 16.1729C30.99 15.8257 32.7996 16.0039 34.4442 16.6851C36.0887 17.3663 37.4943 18.5198 38.4832 19.9999C39.4722 21.4799 40 23.22 40 25C39.9971 27.3861 39.0479 29.6736 37.3607 31.3607C35.6736 33.0479 33.3861 33.9971 31 34Z" fill="black"/>
<path d="M53.62 27C54.236 26.4677 54.6741 25.7595 54.8755 24.9708C55.0768 24.182 55.0318 23.3505 54.7465 22.5881C54.4611 21.8257 53.9491 21.1689 53.2793 20.7063C52.6095 20.2436 51.8141 19.9971 51 20H49V7C48.9979 5.14413 48.2597 3.36489 46.9474 2.05259C45.6352 0.740295 43.8559 0.00211736 42 0H20C18.1442 0.00211736 16.3649 0.740295 15.0526 2.05259C13.7403 3.36489 13.0022 5.14413 13 7V12.56C12.3961 12.1963 11.705 12.0028 11 12H8.00004C7.73482 12 7.48047 12.1054 7.29293 12.2929C7.1054 12.4804 7.00004 12.7348 7.00004 13V44.59L0.290039 51.29L1.71004 52.71L8.71004 45.71C8.89423 45.5193 8.99806 45.2651 9.00004 45V14H11C11.53 14.0016 12.0378 14.2128 12.4125 14.5875C12.7872 14.9623 12.9985 15.4701 13 16V24C13.0001 24.1795 13.0485 24.3556 13.14 24.51L14.15 26.19C15.361 28.2114 16.0005 30.5236 16 32.88V34.33C16.0035 36.1452 15.5089 37.9265 14.57 39.48L16.29 40.52C17.4096 38.6494 18.0006 36.5101 18 34.33V32.88C18.0001 30.1602 17.2604 27.4916 15.86 25.16L15 23.72V7C15 5.67392 15.5268 4.40215 16.4645 3.46447C17.4022 2.52678 18.674 2 20 2H42C42.6566 2 43.3068 2.12933 43.9135 2.3806C44.5201 2.63188 45.0713 3.00017 45.5356 3.46447C45.9999 3.92876 46.3682 4.47995 46.6194 5.08658C46.8707 5.69321 47 6.34339 47 7V20C46.186 19.9971 45.3906 20.2436 44.7208 20.7063C44.051 21.1689 43.539 21.8257 43.2536 22.5881C42.9683 23.3505 42.9232 24.182 43.1246 24.9708C43.326 25.7595 43.7641 26.4677 44.38 27C43.9472 27.3709 43.5998 27.8311 43.3616 28.3489C43.1234 28.8668 43.0001 29.43 43.0001 30C43.0001 30.57 43.1234 31.1332 43.3616 31.6511C43.5998 32.1689 43.9472 32.6291 44.38 33C43.9472 33.3709 43.5998 33.8311 43.3616 34.3489C43.1234 34.8668 43.0001 35.43 43.0001 36C43.0001 36.57 43.1234 37.1332 43.3616 37.6511C43.5998 38.1689 43.9472 38.6291 44.38 39C43.7641 39.5323 43.326 40.2405 43.1246 41.0292C42.9232 41.818 42.9683 42.6495 43.2536 43.4119C43.539 44.1743 44.051 44.8311 44.7208 45.2937C45.3906 45.7564 46.186 46.0029 47 46V47C47 47.6566 46.8707 48.3068 46.6194 48.9134C46.3682 49.52 45.9999 50.0712 45.5356 50.5355C45.0713 50.9998 44.5201 51.3681 43.9135 51.6194C43.3068 51.8707 42.6566 52 42 52H20C18.674 52 17.4022 51.4732 16.4645 50.5355C15.5268 49.5979 15 48.3261 15 47V42H13V47C13.0022 48.8559 13.7403 50.6351 15.0526 51.9474C16.3649 53.2597 18.1442 53.9979 20 54H32.59L27.29 59.29L28.71 60.71L35.41 54H42C43.8559 53.9979 45.6352 53.2597 46.9474 51.9474C48.2597 50.6351 48.9979 48.8559 49 47V46H51C51.8141 46.0029 52.6095 45.7564 53.2793 45.2937C53.9491 44.8311 54.4611 44.1743 54.7465 43.4119C55.0318 42.6495 55.0768 41.818 54.8755 41.0292C54.6741 40.2405 54.236 39.5323 53.62 39C54.0528 38.6291 54.4003 38.1689 54.6384 37.6511C54.8766 37.1332 55 36.57 55 36C55 35.43 54.8766 34.8668 54.6384 34.3489C54.4003 33.8311 54.0528 33.3709 53.62 33C54.0528 32.6291 54.4003 32.1689 54.6384 31.6511C54.8766 31.1332 55 30.57 55 30C55 29.43 54.8766 28.8668 54.6384 28.3489C54.4003 27.8311 54.0528 27.3709 53.62 27ZM51 44H47C46.4696 44 45.9609 43.7893 45.5858 43.4142C45.2108 43.0391 45 42.5304 45 42C45 41.4696 45.2108 40.9609 45.5858 40.5858C45.9609 40.2107 46.4696 40 47 40H51C51.5305 40 52.0392 40.2107 52.4143 40.5858C52.7893 40.9609 53 41.4696 53 42C53 42.5304 52.7893 43.0391 52.4143 43.4142C52.0392 43.7893 51.5305 44 51 44ZM51 38H47C46.4696 38 45.9609 37.7893 45.5858 37.4142C45.2108 37.0391 45 36.5304 45 36C45 35.4696 45.2108 34.9609 45.5858 34.5858C45.9609 34.2107 46.4696 34 47 34H51C51.5305 34 52.0392 34.2107 52.4143 34.5858C52.7893 34.9609 53 35.4696 53 36C53 36.5304 52.7893 37.0391 52.4143 37.4142C52.0392 37.7893 51.5305 38 51 38ZM51 32H47C46.4696 32 45.9609 31.7893 45.5858 31.4142C45.2108 31.0391 45 30.5304 45 30C45 29.4696 45.2108 28.9609 45.5858 28.5858C45.9609 28.2107 46.4696 28 47 28H51C51.5305 28 52.0392 28.2107 52.4143 28.5858C52.7893 28.9609 53 29.4696 53 30C53 30.5304 52.7893 31.0391 52.4143 31.4142C52.0392 31.7893 51.5305 32 51 32ZM51 26H47C46.4696 26 45.9609 25.7893 45.5858 25.4142C45.2108 25.0391 45 24.5304 45 24C45 23.4696 45.2108 22.9609 45.5858 22.5858C45.9609 22.2107 46.4696 22 47 22H51C51.5305 22 52.0392 22.2107 52.4143 22.5858C52.7893 22.9609 53 23.4696 53 24C53 24.5304 52.7893 25.0391 52.4143 25.4142C52.0392 25.7893 51.5305 26 51 26Z" fill="black"/>
<path d="M29 44C28.2044 44 27.4413 44.3161 26.8787 44.8787C26.3161 45.4413 26 46.2044 26 47C26 47.7956 26.3161 48.5587 26.8787 49.1213C27.4413 49.6839 28.2044 50 29 50H33C33.7956 50 34.5587 49.6839 35.1213 49.1213C35.6839 48.5587 36 47.7956 36 47C36 46.2044 35.6839 45.4413 35.1213 44.8787C34.5587 44.3161 33.7956 44 33 44H29ZM34 47C34 47.2652 33.8946 47.5196 33.7071 47.7071C33.5196 47.8946 33.2652 48 33 48H29C28.7348 48 28.4804 47.8946 28.2929 47.7071C28.1054 47.5196 28 47.2652 28 47C28 46.7348 28.1054 46.4804 28.2929 46.2929C28.4804 46.1054 28.7348 46 29 46H33C33.2652 46 33.5196 46.1054 33.7071 46.2929C33.8946 46.4804 34 46.7348 34 47Z" fill="black"/>
</svg>
