<svg width="46" height="60" viewBox="0 0 46 60" fill="none" xmlns="http://www.w3.org/2000/svg">
<path d="M45 11V55C45 56.0609 44.5786 57.0783 43.8284 57.8284C43.0783 58.5786 42.0609 59 41 59H5C3.93913 59 2.92172 58.5786 2.17157 57.8284C1.42143 57.0783 1 56.0609 1 55V5C1 3.93913 1.42143 2.92172 2.17157 2.17157C2.92172 1.42143 3.93913 1 5 1H35V9C35.0016 9.52995 35.2128 10.0377 35.5875 10.4125C35.9623 10.7872 36.4701 10.9984 37 11H45Z" fill="#E6E7E8"/>
<path d="M45 11H37C36.4701 10.9984 35.9623 10.7872 35.5875 10.4125C35.2128 10.0377 35.0016 9.52995 35 9V1L45 11Z" fill="#BCBEC0"/>
<path d="M25 41C31.0751 41 36 36.0751 36 30C36 23.9249 31.0751 19 25 19C18.9249 19 14 23.9249 14 30C14 36.0751 18.9249 41 25 41Z" fill="#D8D7DA"/>
<path d="M23 39C29.0751 39 34 34.0751 34 28C34 21.9249 29.0751 17 23 17C16.9249 17 12 21.9249 12 28C12 34.0751 16.9249 39 23 39Z" fill="#FFD422"/>
<path d="M45.71 10.29L35.71 0.29C35.5193 0.105804 35.2651 0.00197429 35 0H5C3.67392 0 2.40215 0.526784 1.46447 1.46447C0.526784 2.40215 0 3.67392 0 5V55C0 56.3261 0.526784 57.5979 1.46447 58.5355C2.40215 59.4732 3.67392 60 5 60H41C42.3261 60 43.5979 59.4732 44.5355 58.5355C45.4732 57.5979 46 56.3261 46 55V11C45.998 10.7349 45.8942 10.4807 45.71 10.29ZM36 3.41L42.59 10H37C36.7348 10 36.4804 9.89464 36.2929 9.70711C36.1054 9.51957 36 9.26522 36 9V3.41ZM44 55C43.9976 55.7949 43.6808 56.5566 43.1187 57.1187C42.5566 57.6808 41.7949 57.9976 41 58H5C4.20508 57.9976 3.4434 57.6808 2.8813 57.1187C2.31921 56.5566 2.00237 55.7949 2 55V5C2.00237 4.20508 2.31921 3.4434 2.8813 2.8813C3.4434 2.31921 4.20508 2.00237 5 2H34V9C34.0024 9.79492 34.3192 10.5566 34.8813 11.1187C35.4434 11.6808 36.2051 11.9976 37 12H44V55Z" fill="black"/>
<path d="M8 6H6V8H8V6Z" fill="black"/>
<path d="M14 6H10V8H14V6Z" fill="black"/>
<path d="M14 10H6V12H14V10Z" fill="black"/>
<path d="M35 28C35 25.6266 34.2962 23.3066 32.9776 21.3332C31.6591 19.3598 29.7849 17.8217 27.5922 16.9135C25.3995 16.0052 22.9867 15.7676 20.6589 16.2306C18.3312 16.6936 16.193 17.8365 14.5147 19.5147C12.8365 21.193 11.6936 23.3311 11.2306 25.6589C10.7676 27.9867 11.0052 30.3995 11.9135 32.5922C12.8217 34.7849 14.3598 36.6591 16.3332 37.9776C18.3066 39.2962 20.6266 40 23 40C26.1815 39.9966 29.2318 38.7312 31.4815 36.4815C33.7312 34.2318 34.9966 31.1815 35 28ZM23 38C21.0222 38 19.0888 37.4135 17.4443 36.3147C15.7998 35.2159 14.5181 33.6541 13.7612 31.8268C13.0043 29.9996 12.8063 27.9889 13.1922 26.0491C13.578 24.1093 14.5304 22.3275 15.9289 20.9289C17.3275 19.5304 19.1093 18.578 21.0491 18.1922C22.9889 17.8063 24.9996 18.0043 26.8268 18.7612C28.6541 19.5181 30.2159 20.7998 31.3147 22.4443C32.4135 24.0888 33 26.0222 33 28C32.9971 30.6513 31.9426 33.1931 30.0679 35.0679C28.1931 36.9426 25.6513 37.9971 23 38Z" fill="black"/>
<path d="M19 52H7V54H19V52Z" fill="black"/>
<path d="M19 48H7V50H19V48Z" fill="black"/>
<path d="M9 44H7V46H9V44Z" fill="black"/>
<path d="M19 44H11V46H19V44Z" fill="black"/>
<path d="M39 44H27V46H39V44Z" fill="black"/>
<path d="M39 48H27V50H39V48Z" fill="black"/>
<path d="M39 52H27V54H39V52Z" fill="black"/>
<path d="M30 28V32H27V35H23V32H20V28H23V25H27V28H30Z" fill="#EBBF00"/>
<path d="M28 26V30H25V33H21V30H18V26H21V23H25V26H28Z" fill="#FF9811"/>
<path d="M28 25H26V23C26 22.7348 25.8946 22.4804 25.7071 22.2929C25.5196 22.1054 25.2652 22 25 22H21C20.7348 22 20.4804 22.1054 20.2929 22.2929C20.1054 22.4804 20 22.7348 20 23V25H18C17.7348 25 17.4804 25.1054 17.2929 25.2929C17.1054 25.4804 17 25.7348 17 26V30C17 30.2652 17.1054 30.5196 17.2929 30.7071C17.4804 30.8946 17.7348 31 18 31H20V33C20 33.2652 20.1054 33.5196 20.2929 33.7071C20.4804 33.8946 20.7348 34 21 34H25C25.2652 34 25.5196 33.8946 25.7071 33.7071C25.8946 33.5196 26 33.2652 26 33V31H28C28.2652 31 28.5196 30.8946 28.7071 30.7071C28.8946 30.5196 29 30.2652 29 30V26C29 25.7348 28.8946 25.4804 28.7071 25.2929C28.5196 25.1054 28.2652 25 28 25ZM27 29H25C24.7348 29 24.4804 29.1054 24.2929 29.2929C24.1054 29.4804 24 29.7348 24 30V32H22V30C22 29.7348 21.8946 29.4804 21.7071 29.2929C21.5196 29.1054 21.2652 29 21 29H19V27H21C21.2652 27 21.5196 26.8946 21.7071 26.7071C21.8946 26.5196 22 26.2652 22 26V24H24V26C24 26.2652 24.1054 26.5196 24.2929 26.7071C24.4804 26.8946 24.7348 27 25 27H27V29Z" fill="black"/>
</svg>
