<svg width="28" height="28" viewBox="0 0 28 28" fill="none" xmlns="http://www.w3.org/2000/svg">
<path d="M20.7082 2.33447C22.0974 2.33447 23.2347 3.41383 23.3271 4.77975L23.3332 4.95947V23.0405C23.3332 24.4299 22.2538 25.5671 20.8878 25.6595L20.7082 25.6655H7.29163C5.90229 25.6655 4.76505 24.5862 4.67268 23.2203L4.66663 23.0405V4.95947C4.66663 3.57012 5.74598 2.43288 7.1119 2.34053L7.29163 2.33447H20.7082ZM20.7082 4.08447H7.29163C6.84864 4.08447 6.48255 4.41365 6.42462 4.84074L6.41663 4.95947V23.0405C6.41663 23.4835 6.7458 23.8496 7.17289 23.9076L7.29163 23.9155H20.7082C21.1512 23.9155 21.5173 23.5864 21.5751 23.1593L21.5832 23.0405V4.95947C21.5832 4.51649 21.2539 4.1504 20.8268 4.09245L20.7082 4.08447ZM14.2894 15.1635C14.7726 15.1635 15.1644 15.5553 15.1644 16.0385C15.1644 16.4815 14.8352 16.8476 14.4081 16.9056L14.2894 16.9135H9.04156C8.5583 16.9135 8.16656 16.5217 8.16656 16.0385C8.16656 15.5955 8.49573 15.2294 8.92282 15.1716L9.04156 15.1635H14.2894ZM18.9582 11.6651C19.4415 11.6651 19.8332 12.0568 19.8332 12.5401C19.8332 12.9831 19.5041 13.3491 19.0769 13.4071L18.9582 13.4151H9.04156C8.5583 13.4151 8.16656 13.0234 8.16656 12.5401C8.16656 12.0972 8.49573 11.7311 8.92282 11.6731L9.04156 11.6651H18.9582ZM18.9582 8.16667C19.4415 8.16667 19.8332 8.55843 19.8332 9.04168C19.8332 9.48466 19.5041 9.85075 19.0769 9.90868L18.9582 9.91667H9.04156C8.5583 9.91667 8.16656 9.52492 8.16656 9.04168C8.16656 8.59869 8.49573 8.2326 8.92282 8.17467L9.04156 8.16667H18.9582Z" fill="#7A7A7A"/>
</svg>
