<svg width="28" height="28" viewBox="0 0 28 28" fill="none" xmlns="http://www.w3.org/2000/svg">
<path d="M20.7083 2.33447C22.0976 2.33447 23.2348 3.41383 23.3272 4.77975L23.3333 4.95947V23.0405C23.3333 24.4299 22.2539 25.5671 20.888 25.6595L20.7083 25.6655H7.29175C5.90241 25.6655 4.76517 24.5862 4.6728 23.2203L4.66675 23.0405V4.95947C4.66675 3.57012 5.7461 2.43288 7.11202 2.34053L7.29175 2.33447H20.7083ZM14.2895 15.1635H9.04168L8.92295 15.1716C8.49585 15.2294 8.16668 15.5955 8.16668 16.0385C8.16668 16.4815 8.49585 16.8476 8.92295 16.9056L9.04168 16.9135H14.2895L14.4082 16.9056C14.8353 16.8476 15.1645 16.4815 15.1645 16.0385C15.1645 15.5955 14.8353 15.2294 14.4082 15.1716L14.2895 15.1635ZM18.9583 11.6651H9.04168L8.92295 11.6731C8.49585 11.7311 8.16668 12.0972 8.16668 12.5401C8.16668 12.9831 8.49585 13.3491 8.92295 13.4071L9.04168 13.4151H18.9583L19.0771 13.4071C19.5042 13.3491 19.8333 12.9831 19.8333 12.5401C19.8333 12.0972 19.5042 11.7311 19.0771 11.6731L18.9583 11.6651ZM18.9583 8.16667H9.04168L8.92295 8.17467C8.49585 8.2326 8.16668 8.59869 8.16668 9.04168C8.16668 9.48466 8.49585 9.85075 8.92295 9.90868L9.04168 9.91667H18.9583L19.0771 9.90868C19.5042 9.85075 19.8333 9.48466 19.8333 9.04168C19.8333 8.59869 19.5042 8.2326 19.0771 8.17467L18.9583 8.16667Z" fill="#35ADE9"/>
</svg>
