<svg width="47" height="62" viewBox="0 0 47 62" fill="none" xmlns="http://www.w3.org/2000/svg">
<path d="M39.8095 17.6587C35.7524 13.6074 33.9711 12.3596 33.9711 12.3596C33.9711 12.3596 37.1402 11.1861 37.6666 8.00559C38.1983 4.82506 32.8917 1.64453 32.8917 1.64453H6.89028C6.89028 1.64453 9.27773 12.5082 9.5436 16.4852C9.80946 20.4622 10.8091 27.3277 9.5436 30.795C7.42201 36.6251 0.956215 42.5136 1.5996 48.9277C1.95054 52.4481 4.91758 55.533 6.37451 58.4693C7.11361 59.9507 7.0817 59.5206 7.43796 60.5879H24.953C24.953 60.5879 27.6063 54.7578 27.6063 52.1082C29.7279 51.0463 37.1189 49.3313 41.4046 43.6286C47.7747 35.149 44.058 21.9012 39.8148 17.664L39.8095 17.6587ZM24.5383 47.3242C17.0675 47.3242 13.4996 40.8569 13.4996 31.533C13.4996 22.2091 17.6312 14.6799 25.1019 14.6799C32.5727 14.6799 40.8835 22.241 40.8835 31.5649C40.8835 40.8888 32.009 47.3242 24.5383 47.3242Z" fill="#FF8547"/>
<path d="M6.20166 61.0922V60.9696V60.9695V60.9695V60.9695V60.9694V60.9694V60.9693V60.9692V60.9692V60.9691V60.969V60.9689V60.9688V60.9687V60.9685V60.9684V60.9683V60.9681V60.968V60.9678V60.9677V60.9675V60.9673V60.9671V60.9669V60.9667V60.9665V60.9663V60.9661V60.9659V60.9656V60.9654V60.9651V60.9649V60.9646V60.9644V60.9641V60.9638V60.9635V60.9632V60.9629V60.9626V60.9623V60.9619V60.9616V60.9613V60.9609V60.9606V60.9602V60.9598V60.9595V60.9591V60.9587V60.9583V60.9579V60.9575V60.9571V60.9566V60.9562V60.9558V60.9553V60.9549V60.9544V60.954V60.9535V60.953V60.9525V60.952V60.9515V60.951V60.9505V60.95V60.9495V60.9489V60.9484V60.9479V60.9473V60.9468V60.9462V60.9456V60.945V60.9445V60.9439V60.9433V60.9427V60.942V60.9414V60.9408V60.9402V60.9395V60.9389V60.9382V60.9376V60.9369V60.9362V60.9356V60.9349V60.9342V60.9335V60.9328V60.9321V60.9314V60.9307V60.9299V60.9292V60.9284V60.9277V60.9269V60.9262V60.9254V60.9246V60.9239V60.9231V60.9223V60.9215V60.9207V60.9199V60.9191V60.9182V60.9174V60.9166V60.9157V60.9149V60.914V60.9132V60.9123V60.9114V60.9105V60.9097V60.9088V60.9079V60.907V60.906V60.9051V60.9042V60.9033V60.9023V60.9014V60.9005V60.8995V60.8985V60.8976V60.8966V60.8956V60.8946V60.8937V60.8927V60.8917V60.8906V60.8896V60.8886V60.8876V60.8866V60.8855V60.8845V60.8834V60.8824V60.8813V60.8802V60.8792V60.8781V60.877V60.8759V60.8748V60.8737V60.8726V60.8715V60.8704V60.8692V60.8681V60.867V60.8658V60.8647V60.8635V60.8624V60.8612V60.86V60.8588V60.8577V60.8565V60.8553V60.8541V60.8529V60.8517V60.8504V60.8492V60.848V60.8467V60.8455V60.8443V60.843V60.8417V60.8405V60.8392V60.8379V60.8367V60.8354V60.8341V60.8328V60.8315V60.8302V60.8289V60.8275V60.8262V60.8249V60.8235V60.8222V60.8209V60.8195V60.8181V60.8168V60.8154V60.814V60.8127V60.8113V60.8099V60.8085V60.8071V60.8057V60.8043V60.8029V60.8014V60.8V60.7986V60.7971V60.7957V60.7942V60.7928V60.7913V60.7899V60.7884V60.7869V60.7854V60.784V60.7825V60.781V60.7795V60.778V60.7765V60.7749V60.7734V60.7719V60.7704V60.7688V60.7673V60.7657V60.7642V60.7626V60.7611V60.7595V60.7579V60.7563V60.7547V60.7532V60.7516V60.75V60.7484V60.7468V60.7451V60.7435V60.7419V60.7403V60.7386V60.737V60.7354V60.7337V60.7321V60.7304V60.7287V60.7271V60.7254V60.7237V60.722V60.7203V60.7186V60.7169V60.7152V60.7135V60.7118V60.7101V60.7084V60.7067V60.7049V60.7032V60.7015V60.6997V60.698V60.6962V60.6945V60.6927V60.6909V60.6891V60.6874V60.6856V60.6838V60.682V60.6802V60.6784V60.6766V60.6748V60.673V60.6711V60.6693V60.6675V60.6657V60.6638V60.662V60.6601V60.6583V60.6564V60.6546V60.6527V60.6508V60.6489V60.6471V60.6452V60.6433V60.6414V60.6395V60.6376V60.6357V60.6338V60.6319V60.63V60.628V60.6261V60.6242V60.6222V60.6203V60.6183V60.6164V60.6144V60.6125V60.6105V60.6086V60.6066V60.6046V60.6026V60.6006V60.5986V60.5967V60.5947V60.5927V60.5907V60.5886V60.5866V60.5846V60.5826V60.5806V60.5785V60.5765V60.5745V60.5724V60.5704V60.5683V60.5663V60.5642V60.5621V60.5601V60.558V60.5559V60.5538V60.5518V60.5497V60.5476V60.5455V60.5434V60.5413V60.5392V60.537V60.5349V60.5328V60.5307V60.5286V60.5264V60.5243V60.5221V60.52V60.5179V60.5157V60.5135V60.5114V60.5092V60.5071V60.5049V60.5027V60.5005V60.4984V60.4962V60.494V60.4918V60.4896V60.4874V60.4852V60.483V60.4808V60.4785V60.4763V60.4741V60.4719V60.4696V60.4674V60.4652V60.4629V60.4607V60.4584V60.4562V60.4539V60.4516V60.4494V60.4471V60.4448V60.4426V60.4403V60.438V60.4357V60.4334V60.4311V60.4288V60.4265V60.4242V60.4219V60.4196V60.4173V60.415V60.4127V60.4103V60.408V60.4057V60.4033V60.401V60.3987V60.3963V60.394V60.3916V60.3893V60.3869V60.3845V60.3822V60.3798V60.3774V60.3751V60.3727V60.3703V60.3679V60.3655V60.3631V60.3607V60.3583V60.3559V60.3535V60.3511V60.3487V60.3463V60.3439V60.3414V60.339V60.3366V60.3342V60.3317V60.3293V60.3269V60.3244V60.322V60.3195V60.3171V60.3146V60.3121V60.3097V60.3072V60.3047V60.3023V60.2998V60.2973V60.2948V60.2924V60.2899V60.2874V60.2849V60.2824V60.2799V60.2774V60.2749V60.2724V60.2699V60.2674V60.2648V60.2623V60.2598V60.2573V60.2547V60.2522V60.2497V60.2471V60.2446V60.2421V60.2395V60.237V60.2344V60.2319V60.2293V60.2268V60.2242V60.2216V60.2191V60.2165V60.2139V60.2113V60.2088V60.2062C6.20166 58.8719 5.38523 57.8294 4.29831 56.4499C3.24613 55.118 2.03951 53.5868 1.44715 51.4251L1.44711 51.4249C0.643697 48.4779 0.769881 46.1136 1.3122 44.1286C1.85248 42.151 2.80475 40.5551 3.64553 39.1461L3.65094 39.137L3.65108 39.1368L3.92212 38.6804L3.92226 38.6802C4.38658 37.9021 4.88266 37.1511 5.36106 36.4292L5.36109 36.4291C6.71686 34.3851 8.1094 32.2822 8.88533 29.1934C9.39361 27.1618 9.4555 24.4631 9.25754 21.5464C9.05974 18.632 8.60328 15.5097 8.08067 12.6354C7.03545 6.88691 5.72717 2.13876 5.70109 2.045L5.701 2.04469C5.64253 1.83236 5.60718 1.70475 5.58646 1.63027L5.56531 1.55449L5.56099 1.53914L5.56005 1.53581L5.55984 1.53507L5.55979 1.53491L5.55979 1.53489L5.55979 1.53488L5.52519 1.41351L5.6469 1.38009C5.77259 1.34557 6.1694 1.25712 6.52952 1.17834C6.71073 1.1387 6.88431 1.10116 7.01257 1.07352L7.16631 1.04048L7.20888 1.03136L7.22005 1.02897L7.22291 1.02836L7.22364 1.0282L7.22382 1.02816L7.22387 1.02815L7.25 1.15039L7.22389 1.02815L7.34514 1.00225L7.37203 1.12329L7.37203 1.12331L7.37206 1.12342L7.37217 1.12392L7.37262 1.12597L7.37444 1.13405L7.38138 1.16452C7.38736 1.19058 7.39587 1.22719 7.40601 1.26934C7.42638 1.35408 7.45288 1.45954 7.47821 1.54642L7.47873 1.5482L7.47872 1.5482C7.5881 1.94515 8.92656 6.80385 9.96841 12.6402C10.4893 15.5583 10.9365 18.7229 11.1185 21.6976C11.3004 24.6703 11.2181 27.4623 10.6752 29.6312C9.8268 33.0251 8.33913 35.2673 6.91272 37.417L6.89877 37.4381L6.89874 37.4381L6.85719 37.5008C6.38309 38.216 5.93594 38.8906 5.50894 39.6098L5.50871 39.6102L5.23233 40.072L5.23221 40.0722L5.22914 40.0773C4.42362 41.4286 3.57411 42.8536 3.09865 44.5849C2.62354 46.3148 2.52087 48.3561 3.22494 50.9342L6.20166 61.0922ZM6.20166 61.0922L6.32421 61.0946M6.20166 61.0922L6.32421 61.0946M6.32421 61.0946L7.89755 61.1254L8.01919 61.1278M6.32421 61.0946L8.01919 61.1278M8.01919 61.1278L8.02486 61.0062M8.01919 61.1278L8.02486 61.0062M8.02486 61.0062L8.02487 61.0061L8.02488 61.0059L8.02492 61.0051L8.02506 61.0019L8.0256 60.9897L8.02749 60.9431C8.02905 60.9027 8.03113 60.8443 8.03321 60.7722C8.03736 60.6278 8.04152 60.428 8.04152 60.2062C8.04152 58.2182 6.9096 56.7834 5.7442 55.3075M8.02486 61.0062L5.7442 55.3075M5.7442 55.3075C4.7381 54.0318 3.71725 52.7279 3.22498 50.9343L5.7442 55.3075Z" fill="black" stroke="black" stroke-width="0.25"/>
<path d="M24.3507 53.038L24.3513 53.0396L24.6312 53.8896L24.6692 54.0048L24.7855 53.9703L24.75 53.8505L24.7855 53.9703L24.7855 53.9703L24.7856 53.9703L24.7859 53.9702L24.7872 53.9698L24.7921 53.9684L24.811 53.9628L24.8788 53.9427L25.0894 53.8808C25.2487 53.8342 25.4085 53.788 25.4384 53.7811L25.4384 53.7812L25.4418 53.7803C31.4966 52.2055 36.1484 49.971 39.5054 46.9646C42.8646 43.9562 44.9206 40.1809 45.792 35.539C46.1802 33.4723 46.4807 29.7854 45.0923 25.4227C43.7035 21.0584 40.6272 16.0261 34.2747 11.2672L34.2747 11.2672L34.2742 11.2668C33.8686 10.9661 33.2911 11.0457 32.9836 11.451C32.675 11.8578 32.7625 12.4351 33.1673 12.7413L33.1678 12.7417C39.1251 17.2007 42.0028 21.8722 43.305 25.896C44.6077 29.9213 44.3365 33.3068 43.983 35.1956C43.1849 39.4495 41.2799 42.906 38.1574 45.6701C35.0326 48.4363 30.6821 50.5147 24.9854 51.9985L24.9852 51.9986C24.7742 52.0539 24.5839 52.0988 24.4464 52.1299C24.3776 52.1454 24.3221 52.1575 24.2839 52.1656L24.24 52.1749L24.2287 52.1772L24.2259 52.1778L24.2252 52.178L24.2251 52.178L24.2251 52.178L24.0892 52.2057L24.1308 52.338L24.3508 53.038L24.3507 53.038Z" fill="black" stroke="black" stroke-width="0.25"/>
<path d="M24.2 61.0005L24.077 60.9782L24.0502 61.1255H24.2H25.8199H25.9175L25.9412 61.0309L25.9412 61.0309L25.9412 61.0309L25.9412 61.0309L25.9412 61.0309L25.9412 61.0309L25.9412 61.0308L25.9412 61.0308L25.9412 61.0308L25.9412 61.0308L25.9412 61.0308L25.9412 61.0308L25.9412 61.0308L25.9412 61.0308L25.9412 61.0308L25.9412 61.0307L25.9412 61.0307L25.9412 61.0307L25.9412 61.0307L25.9412 61.0307L25.9412 61.0307L25.9412 61.0306L25.9413 61.0306L25.9413 61.0306L25.9413 61.0306L25.9413 61.0305L25.9413 61.0305L25.9413 61.0305L25.9413 61.0305L25.9413 61.0304L25.9413 61.0304L25.9413 61.0304L25.9413 61.0303L25.9413 61.0303L25.9413 61.0303L25.9413 61.0302L25.9414 61.0302L25.9414 61.0302L25.9414 61.0301L25.9414 61.0301L25.9414 61.03L25.9414 61.03L25.9414 61.0299L25.9414 61.0299L25.9414 61.0298L25.9415 61.0298L25.9415 61.0297L25.9415 61.0297L25.9415 61.0296L25.9415 61.0296L25.9415 61.0295L25.9415 61.0294L25.9416 61.0294L25.9416 61.0293L25.9416 61.0293L25.9416 61.0292L25.9416 61.0291L25.9417 61.029L25.9417 61.029L25.9417 61.0289L25.9417 61.0288L25.9417 61.0287L25.9418 61.0286L25.9418 61.0286L25.9418 61.0285L25.9418 61.0284L25.9418 61.0283L25.9419 61.0282L25.9419 61.0281L25.9419 61.028L25.9419 61.0279L25.942 61.0278L25.942 61.0277L25.942 61.0276L25.942 61.0275L25.9421 61.0273L25.9421 61.0272L25.9421 61.0271L25.9422 61.027L25.9422 61.0269L25.9422 61.0267L25.9423 61.0266L25.9423 61.0265L25.9423 61.0264L25.9424 61.0262L25.9424 61.0261L25.9424 61.0259L25.9425 61.0258L25.9425 61.0256L25.9425 61.0255L25.9426 61.0253L25.9426 61.0252L25.9427 61.025L25.9427 61.0249L25.9427 61.0247L25.9428 61.0245L25.9428 61.0244L25.9429 61.0242L25.9429 61.024L25.943 61.0238L25.943 61.0236L25.943 61.0235L25.9431 61.0233L25.9431 61.0231L25.9432 61.0229L25.9432 61.0227L25.9433 61.0225L25.9433 61.0223L25.9434 61.0221L25.9435 61.0219L25.9435 61.0216L25.9436 61.0214L25.9436 61.0212L25.9437 61.021L25.9437 61.0207L25.9438 61.0205L25.9438 61.0203L25.9439 61.02L25.944 61.0198L25.944 61.0195L25.9441 61.0193L25.9442 61.019L25.9442 61.0188L25.9443 61.0185L25.9444 61.0183L25.9444 61.018L25.9445 61.0177L25.9446 61.0174L25.9446 61.0172L25.9447 61.0169L25.9448 61.0166L25.9448 61.0163L25.9449 61.016L25.945 61.0157L25.9451 61.0154L25.9451 61.0151L25.9452 61.0148L25.9453 61.0145L25.9454 61.0141L25.9455 61.0138L25.9456 61.0135L25.9456 61.0132L25.9457 61.0128L25.9458 61.0125L25.9459 61.0121L25.946 61.0118L25.9461 61.0114L25.9462 61.0111L25.9462 61.0107L25.9463 61.0103L25.9464 61.01L25.9465 61.0096L25.9466 61.0092L25.9467 61.0088L25.9468 61.0084L25.9469 61.008L25.947 61.0076L25.9471 61.0072L25.9472 61.0068L25.9473 61.0064L25.9474 61.006L25.9475 61.0056L25.9476 61.0052L25.9477 61.0047L25.9479 61.0043L25.948 61.0038L25.9481 61.0034L25.9482 61.003L25.9483 61.0025L25.9484 61.002L25.9485 61.0016L25.9487 61.0011L25.9488 61.0006L25.9489 61.0001L25.949 60.9997L25.9491 60.9992L25.9493 60.9987L25.9494 60.9982L25.9495 60.9977L25.9496 60.9972L25.9498 60.9966L25.9499 60.9961L25.95 60.9956L25.9502 60.9951L25.9503 60.9945L25.9504 60.994L25.9506 60.9934L25.9507 60.9929L25.9509 60.9923L25.951 60.9917L25.9511 60.9912L25.9513 60.9906L25.9514 60.99L25.9516 60.9894L25.9517 60.9888L25.9519 60.9882L25.952 60.9876L25.9522 60.987L25.9523 60.9864L25.9525 60.9858L25.9527 60.9852L25.9528 60.9845L25.953 60.9839L25.9531 60.9833L25.9533 60.9826L25.9535 60.9819L25.9536 60.9813L25.9538 60.9806L25.954 60.9799L25.9541 60.9793L25.9543 60.9786L25.9545 60.9779L25.9547 60.9772L25.9548 60.9765L25.955 60.9758L25.9552 60.9751L25.9554 60.9743L25.9556 60.9736L25.9557 60.9729L25.9559 60.9721L25.9561 60.9714L25.9563 60.9706L25.9565 60.9699L25.9567 60.9691L25.9569 60.9683L25.9571 60.9676L25.9573 60.9668L25.9575 60.966L25.9577 60.9652L25.9579 60.9644L25.9581 60.9636L25.9583 60.9628L25.9585 60.9619L25.9587 60.9611L25.9589 60.9603L25.9591 60.9594L25.9593 60.9586L25.9595 60.9577L25.9598 60.9568L25.96 60.956L25.9602 60.9551L25.9604 60.9542L25.9606 60.9533L25.9609 60.9524L25.9611 60.9515L25.9613 60.9506L25.9616 60.9497L25.9618 60.9488L25.962 60.9478L25.9623 60.9469L25.9625 60.9459L25.9627 60.945L25.963 60.944L25.9632 60.943L25.9635 60.9421L25.9637 60.9411L25.964 60.9401L25.9642 60.9391L25.9645 60.9381L25.9647 60.9371L25.965 60.9361L25.9652 60.935L25.9655 60.934L25.9657 60.933L25.966 60.9319L25.9663 60.9309L25.9665 60.9298L25.9668 60.9287L25.9671 60.9276L25.9674 60.9266L25.9676 60.9255L25.9679 60.9244L25.9682 60.9232L25.9685 60.9221L25.9687 60.921L25.969 60.9199L25.9693 60.9187L25.9696 60.9176L25.9699 60.9164L25.9702 60.9153L25.9705 60.9141L25.9708 60.9129L25.9711 60.9117L25.9714 60.9105L25.9717 60.9093L25.972 60.9081L25.9723 60.9069L25.9726 60.9057L25.9729 60.9044L25.9732 60.9032L25.9735 60.9019L25.9738 60.9007L25.9742 60.8994L25.9745 60.8981L25.9748 60.8968L25.9751 60.8955L25.9755 60.8942L25.9758 60.8929L25.9761 60.8916L25.9765 60.8903L25.9768 60.889L25.9771 60.8876L25.9775 60.8863L25.9778 60.8849L25.9781 60.8835L25.9785 60.8822L25.9788 60.8808L25.9792 60.8794L25.9795 60.878L25.9799 60.8766L25.9803 60.8751L25.9806 60.8737L25.981 60.8723L25.9813 60.8708L25.9817 60.8694L25.9821 60.8679L25.9824 60.8664L25.9828 60.865L25.9832 60.8635L25.9836 60.862L25.9839 60.8605L25.9843 60.8589L25.9847 60.8574L25.9851 60.8559L25.9855 60.8543L25.9859 60.8528L25.9863 60.8512L25.9866 60.8496L25.987 60.8481L25.9874 60.8465L25.9878 60.8449L25.9882 60.8433L25.9887 60.8416L25.9891 60.84L25.9895 60.8384L25.9899 60.8367L25.9903 60.8351L25.9907 60.8334L25.9911 60.8317L25.9916 60.8301L25.992 60.8284L25.9924 60.8267L25.9928 60.825L25.9933 60.8232L25.9937 60.8215L25.9941 60.8198L25.9946 60.818L25.995 60.8163L25.9955 60.8145L25.9959 60.8127L25.9964 60.8109L25.9968 60.8091L25.9973 60.8073L25.9977 60.8055L25.9982 60.8037L25.9986 60.8018L25.9991 60.8L25.9996 60.7981L26 60.7963L26.0005 60.7944L26.001 60.7925L26.0015 60.7906L26.0019 60.7887L26.0024 60.7868L26.0029 60.7848L26.0034 60.7829L26.0039 60.781L26.0044 60.779L26.0049 60.777L26.0054 60.7751L26.0059 60.7731L26.0064 60.7711L26.0069 60.7691L26.0074 60.767L26.0079 60.765L26.0084 60.763L26.0089 60.7609L26.0094 60.7589L26.0099 60.7568L26.0105 60.7547L26.011 60.7526L26.0115 60.7505L26.012 60.7484L26.0126 60.7463L26.0131 60.7441L26.0136 60.742L26.0142 60.7398L26.0147 60.7377L26.0153 60.7355L26.0158 60.7333L26.0164 60.7311L26.0169 60.7289L26.0175 60.7267L26.018 60.7244L26.0186 60.7222L26.0192 60.72L26.0197 60.7177L26.0203 60.7154L26.0209 60.7131L26.0215 60.7108L26.022 60.7085L26.0226 60.7062L26.0232 60.7039L26.0238 60.7015L26.0244 60.6992L26.025 60.6968L26.0256 60.6944L26.0262 60.6921L26.0268 60.6897L26.0274 60.6872L26.028 60.6848L26.0286 60.6824L26.0292 60.68L26.0298 60.6775L26.0304 60.675L26.0311 60.6726L26.0317 60.6701L26.0323 60.6676L26.0329 60.6651L26.0336 60.6625L26.0342 60.66L26.0349 60.6575L26.0355 60.6549L26.0361 60.6523L26.0368 60.6497L26.0374 60.6472L26.0381 60.6445L26.0387 60.6419L26.0394 60.6393L26.0401 60.6367L26.0407 60.634L26.0414 60.6313L26.0421 60.6287L26.0427 60.626L26.0434 60.6233L26.0441 60.6206L26.0448 60.6179L26.0455 60.6151L26.0462 60.6124L26.0469 60.6096L26.0475 60.6068L26.0482 60.6041L26.0489 60.6013L26.0497 60.5984L26.0504 60.5956L26.0511 60.5928L26.0518 60.59L26.0525 60.5871L26.0532 60.5842L26.0539 60.5813L26.0547 60.5784L26.0554 60.5755L26.0561 60.5726L26.0569 60.5697L26.0576 60.5667L26.0583 60.5638L26.0591 60.5608L26.0598 60.5578L26.0606 60.5548L26.0613 60.5518L26.0621 60.5488L26.0629 60.5458L26.0636 60.5427L26.0644 60.5397L26.0652 60.5366L26.0659 60.5335L26.0667 60.5304L26.0675 60.5273L26.0683 60.5242L26.0691 60.5211L26.0698 60.5179L26.0706 60.5148L26.0714 60.5116L26.0722 60.5084L26.073 60.5052L26.0738 60.502L26.0747 60.4988L26.0755 60.4955L26.0763 60.4923L26.0771 60.489L26.0779 60.4857L26.0787 60.4825L26.0796 60.4791L26.0804 60.4758L26.0812 60.4725L26.0821 60.4692L26.0829 60.4658L26.0838 60.4624L26.0846 60.459L26.0855 60.4556L26.0863 60.4522L26.0872 60.4488L26.088 60.4454L26.0889 60.4419L26.0898 60.4385C26.2856 59.6577 26.6622 58.7601 27.0674 57.8019L27.0674 57.8018C27.7103 56.279 28.4446 54.5354 28.7823 52.5174C28.8684 52.0133 28.5294 51.5405 28.0261 51.4547C27.5216 51.3687 27.048 51.707 26.9619 52.21L26.9619 52.2105C26.6615 54.0099 25.9815 55.6379 25.3696 57.0832L25.3694 57.0836L25.3611 57.1033C24.9376 58.1131 24.5819 59.0717 24.3069 59.9789C24.2458 60.1806 24.1882 60.4312 24.1463 60.6293C24.1252 60.7287 24.1079 60.8158 24.0959 60.878L24.0819 60.9513L24.0783 60.9711L24.0773 60.9763L24.0771 60.9777L24.077 60.978L24.077 60.9781L24.077 60.9782L24.2 61.0005Z" fill="black" stroke="black" stroke-width="0.25"/>
<path d="M29.5 10.8002L29.552 10.6866L29.552 10.6866L29.5521 10.6866L29.5524 10.6868L29.5538 10.6874L29.5591 10.6898L29.5793 10.6991L29.6529 10.7326C29.7145 10.7605 29.7981 10.7985 29.8866 10.8383C30.0653 10.9187 30.2582 11.0043 30.3316 11.0328L30.3327 11.0332C31.6844 11.5742 33.6301 11.3377 34.9389 10.4717C35.6459 10.0027 36.4896 9.12829 36.5101 7.62723L36.5101 7.62686C36.5358 6.08387 35.6254 4.84268 34.6828 3.97558C33.7501 3.11761 32.805 2.64397 32.7727 2.62781C32.5787 2.53356 32.374 2.44319 32.2173 2.37618C32.1389 2.34269 32.0728 2.31514 32.0264 2.29598L31.9724 2.27386L31.9582 2.26811L31.9546 2.26666L31.9537 2.26631L31.9535 2.26622L31.9535 2.26621L31.9535 2.2662L31.9535 2.2662L31.8431 2.22191L31.8818 2.10945L32.3818 0.659446L32.4214 0.544794L32.5372 0.580846L32.5 0.700195L32.5372 0.580852L32.5372 0.580862L32.5373 0.580896L32.5377 0.581019L32.5392 0.581476L32.5448 0.583227L32.5659 0.589945C32.5843 0.595802 32.6109 0.604353 32.644 0.615197C32.7102 0.636878 32.8025 0.667772 32.9072 0.704673C33.1154 0.77805 33.377 0.876742 33.5791 0.97491C33.6827 1.02524 34.8881 1.62127 36.0612 2.73772C37.2339 3.85374 38.3879 5.50313 38.3552 7.65738C38.328 9.4517 37.4716 10.9974 35.9601 12.0072L35.9597 12.0075C34.8153 12.7657 33.3657 13.1646 31.9665 13.1646C31.1504 13.1646 30.3525 13.0297 29.6494 12.7467C29.4407 12.6628 29.2634 12.5786 29.1381 12.5153C29.0755 12.4837 29.0257 12.4572 28.9914 12.4385C28.9742 12.4292 28.961 12.4218 28.9518 12.4166L28.9414 12.4107L28.9385 12.4091L28.9378 12.4086L28.9375 12.4085L28.9374 12.4085L28.9374 12.4084L29 12.3002L28.9374 12.4084L28.8435 12.3541L28.8841 12.2535C28.9334 12.131 29.0568 11.7612 29.1697 11.4159C29.2257 11.2445 29.2785 11.0811 29.3173 10.9605L29.3637 10.8161L29.3764 10.7762L29.3798 10.7658L29.3806 10.7631L29.3808 10.7625L29.3809 10.7623L29.3809 10.7623L29.5 10.8002ZM29.5 10.8002L29.552 10.6866L29.4238 10.6279L29.3809 10.7623L29.5 10.8002Z" fill="black" stroke="black" stroke-width="0.25"/>
<path d="M24.6332 47.5423C17.3635 47.5423 13.1969 41.6989 13.1969 31.5152C13.1969 21.3314 18.0108 14.4619 25.1778 14.4619C32.3448 14.4619 41.1969 21.9266 41.1969 31.5459C41.1969 41.1653 32.4527 47.5423 24.6332 47.5423ZM25.1778 16.001C17.9646 16.001 14.7382 23.794 14.7382 31.5152C14.7382 40.7241 18.3448 46.0032 24.6332 46.0032C31.7231 46.0032 39.6556 39.8212 39.6556 31.5459C39.6556 22.7936 31.8721 16.001 25.1778 16.001Z" fill="black"/>
<path d="M13.0469 31.5152C13.0469 36.6244 14.0916 40.6662 16.0668 43.4348C18.0468 46.2102 20.9525 47.6923 24.6332 47.6923C32.5176 47.6923 41.3469 41.265 41.3469 31.5459C41.3469 26.689 39.1123 22.3812 35.9803 19.2899C32.8505 16.2006 28.8097 14.3119 25.1778 14.3119C21.5402 14.3119 18.5013 16.0576 16.377 19.0835C14.2553 22.1056 13.0469 26.4016 13.0469 31.5152Z" stroke="black" stroke-width="0.3"/>
<path d="M22.3139 19.6765C21.6036 20.0866 21.0489 20.7662 20.6889 21.6871C19.9319 23.6278 20.4768 24.6675 20.8786 25.4305C21.1276 25.9003 21.2026 26.0782 21.1198 26.3471C20.9993 26.7428 20.6655 27.3446 20.3122 27.9797C19.5147 29.4186 18.5169 31.2108 18.7806 32.7611C19.0778 34.5133 19.6392 36.4833 21.5314 37.823C23.6097 39.2931 25.0594 38.9647 25.9263 38.7683C26.0641 38.7384 26.2441 38.6953 26.3487 38.6846C26.3497 38.7726 26.333 38.9259 26.3221 39.0317C26.2605 39.5869 26.1568 40.5201 27.1298 41.2077C28.5332 42.1996 31.4864 41.9428 32.149 41.0185C32.4247 40.6327 32.4138 40.2686 32.3589 40.0295C32.1915 39.308 31.3991 38.8755 30.7622 38.5301C30.7067 38.5013 30.6513 38.4725 30.6001 38.4413C30.6416 38.2349 30.7166 37.9428 30.7758 37.7096C31.0403 36.7001 31.34 35.5597 30.9275 34.7973C30.3456 33.7126 29.2575 33.5835 28.7066 33.6749C28.3132 33.7417 28.0518 34.1138 28.118 34.5067C28.1843 34.8997 28.5563 35.1603 28.9497 35.0935C29.018 35.0871 29.4347 35.0511 29.664 35.477C29.8048 35.7496 29.5103 36.8703 29.3884 37.3498C29.1316 38.3439 28.9421 39.0613 29.5139 39.4664C29.6665 39.5773 29.8661 39.6832 30.0746 39.795C30.2676 39.8991 30.6073 40.0844 30.8142 40.2414C30.1971 40.4484 28.6621 40.5331 27.9669 40.0389C27.707 39.8573 27.6964 39.7142 27.7533 39.1893C27.8016 38.7358 27.8857 37.9797 27.1977 37.498C26.6731 37.1265 26.1075 37.2595 25.6072 37.3715C24.8568 37.5394 23.9222 37.7528 22.3644 36.6566C21.1852 35.8228 20.56 34.6249 20.2016 32.5267C20.0211 31.4756 20.8831 29.9276 21.5719 28.6842C21.9795 27.9513 22.3286 27.3186 22.4961 26.7741C22.757 25.9215 22.4229 25.2852 22.154 24.7715C21.8247 24.1436 21.5145 23.5487 22.0305 22.2171C22.4353 21.1819 23.1368 20.6607 24.1168 20.6698C25.4322 20.6843 26.7903 21.636 27.0852 22.4442C28.0961 25.2215 26.4078 26.3454 26.2174 26.4664C25.8816 26.6714 25.7702 27.1116 25.9706 27.4491C26.1711 27.7867 26.6032 27.9021 26.9438 27.7054C27.9698 27.1131 29.599 25.1387 28.4415 21.954C27.9106 20.4972 25.9402 19.2523 24.1413 19.235C23.4622 19.2291 22.8486 19.3844 22.321 19.689L22.3139 19.6765Z" fill="black"/>
<path d="M22.3505 19.5399L22.2638 19.5899C21.5305 20.0133 20.9624 20.7126 20.5958 21.6507L20.5957 21.6508C20.2118 22.6351 20.1555 23.398 20.2503 24.0156C20.345 24.6317 20.5892 25.0956 20.7901 25.4771L20.7902 25.4774C20.9158 25.7143 20.9914 25.8668 21.0276 25.9919C21.0616 26.1096 21.06 26.2014 21.0242 26.3177L21.0241 26.318C20.9075 26.7009 20.5808 27.2911 20.2248 27.9311L20.2248 27.9312L20.2139 27.9509C19.8185 28.6643 19.3714 29.4709 19.0551 30.2927C18.7363 31.1214 18.5458 31.977 18.6821 32.7779C18.9803 34.5365 19.5476 36.5409 21.4736 37.9046L21.4737 37.9047C22.5253 38.6486 23.4234 38.941 24.1726 39.02C24.9197 39.0989 25.5122 38.9646 25.9463 38.8662L25.9474 38.866C25.977 38.8596 26.0077 38.8528 26.0386 38.8459C26.109 38.8303 26.1807 38.8144 26.2435 38.8023C26.2387 38.866 26.2313 38.9375 26.2248 38.9999C26.2241 39.0071 26.2233 39.0142 26.2226 39.0211C26.2226 39.0212 26.2226 39.0213 26.2226 39.0215L26.2222 39.025C26.1915 39.3012 26.1487 39.6871 26.2404 40.0922C26.3336 40.5035 26.5643 40.9305 27.0721 41.2894C27.0721 41.2894 27.0721 41.2894 27.0721 41.2894L27.1298 41.2077C28.5332 42.1996 31.4864 41.9428 32.149 41.0185L22.3505 19.5399ZM22.3505 19.5399L22.3584 19.5536M22.3505 19.5399L26.1645 26.3816M24.1413 19.235C23.4622 19.2291 22.8486 19.3844 22.321 19.689L22.4076 19.639L22.4005 19.6265L22.3584 19.5536M24.1413 19.235L22.271 19.6023C22.2999 19.5857 22.329 19.5694 22.3584 19.5536M24.1413 19.235C25.9402 19.2523 27.9106 20.4972 28.4415 21.954C29.599 25.1387 27.9698 27.1131 26.9438 27.7054C26.6032 27.9021 26.1711 27.7867 25.9706 27.4491L24.1413 19.235ZM22.3584 19.5536C22.8826 19.2716 23.4839 19.1293 24.1422 19.135L24.1423 19.135C25.0632 19.1439 26.0234 19.4664 26.8203 19.9702C27.6164 20.4734 28.2602 21.1644 28.5355 21.9198L28.5355 21.9199C29.7116 25.1558 28.0563 27.1786 26.9938 27.792C26.6053 28.0163 26.1128 27.8844 25.8847 27.5002C25.6561 27.1153 25.7831 26.6149 26.1645 26.3816M26.1645 26.3816C26.2543 26.3244 26.7051 26.0252 27.0122 25.4069C27.3184 24.7904 27.4882 23.8437 26.9912 22.4784C26.8544 22.1035 26.4618 21.6788 25.9304 21.344C25.4015 21.0107 24.7511 20.7768 24.1159 20.7698L26.1645 26.3816ZM21.1198 26.3471C20.9993 26.7428 20.6655 27.3446 20.3122 27.9797L20.3028 27.9967C19.5069 29.4327 18.518 31.2169 18.7806 32.7611C19.0778 34.5133 19.6392 36.4833 21.5314 37.823C23.6097 39.2931 25.0594 38.9647 25.9263 38.7683C25.9538 38.7623 25.983 38.7558 26.0129 38.7492C26.0921 38.7316 26.1764 38.7128 26.2487 38.6997L21.1198 26.3471ZM21.1198 26.3471C21.2026 26.0782 21.1276 25.9003 20.8786 25.4305C20.4768 24.6675 19.9319 23.6278 20.6889 21.6871C21.0342 20.8036 21.5588 20.1422 22.228 19.7279L22.2272 19.7265L22.3139 19.6765L21.1198 26.3471ZM30.5809 40.2019C30.2784 40.2706 29.8551 40.3148 29.4225 40.3031C28.8794 40.2885 28.3472 40.1866 28.0249 39.9574L28.0242 39.957C27.9058 39.8742 27.8594 39.8118 27.8388 39.7208C27.8152 39.6161 27.8238 39.4669 27.8527 39.2001L27.8528 39.1999L27.8544 39.1849C27.9023 38.7354 27.9883 37.9295 27.2551 37.4161C26.7007 37.0238 26.1033 37.1578 25.6159 37.267C25.6057 37.2693 25.5955 37.2716 25.5854 37.2739L25.5824 37.2746C25.2078 37.3584 24.8025 37.4491 24.3005 37.3888C23.7981 37.3285 23.1904 37.1156 22.4221 36.5749C21.2731 35.7625 20.6563 34.5943 20.3001 32.5099L20.3001 32.5098C20.215 32.0139 20.3753 31.3868 20.6531 30.7158C20.9268 30.0551 21.3064 29.3697 21.6487 28.7518L21.6593 28.7328L30.5809 40.2019ZM30.5809 40.2019C30.3946 40.0826 30.1726 39.9614 30.0271 39.883L30.0746 39.795L30.0526 39.7832C29.8521 39.6757 29.6611 39.5734 29.5139 39.4664M30.5809 40.2019L30.7128 38.3908C30.752 38.2095 30.8101 37.9807 30.8605 37.7823C30.8646 37.7662 30.8687 37.7503 30.8727 37.7346C30.8727 37.7345 30.8727 37.7344 30.8727 37.7343L30.8747 37.7267C31.0059 37.2259 31.1479 36.6842 31.2049 36.1719C31.2622 35.6578 31.2361 35.1577 31.0157 34.75C30.4066 33.6148 29.267 33.4805 28.6903 33.5762L28.6899 33.5763C28.2415 33.6525 27.9441 34.0766 28.0194 34.5233C28.0948 34.9703 28.5168 35.2662 28.9625 35.1927C29.0349 35.1862 29.3811 35.1635 29.5755 35.5235C29.5844 35.541 29.5934 35.5733 29.598 35.625C29.6026 35.6758 29.6024 35.7383 29.5977 35.8108C29.5884 35.9557 29.5618 36.1317 29.5265 36.3171C29.4614 36.6588 29.3686 37.0228 29.3065 37.2661C29.3013 37.2866 29.2963 37.3063 29.2915 37.325C29.2915 37.325 29.2915 37.3251 29.2915 37.3252L29.2846 37.3518C29.1601 37.8336 29.0486 38.265 29.0404 38.6267C29.0319 39.003 29.135 39.3203 29.4556 39.5477C29.4557 39.5478 29.4559 39.5479 29.456 39.548L29.5139 39.4664M29.5139 39.4664C28.9455 39.0637 29.1293 38.3524 29.3838 37.3676L29.3884 37.3498L29.5139 39.4664ZM22.5917 26.8035L22.5917 26.8034C22.8643 25.9127 22.5148 25.2451 22.2468 24.7332L22.2426 24.7252L22.2426 24.7251C22.0773 24.41 21.9258 24.1186 21.8743 23.7445C21.823 23.372 21.8701 22.9079 22.1238 22.2532C22.3212 21.7485 22.5879 21.3767 22.9176 21.1321C23.2464 20.8882 23.6447 20.7655 24.1157 20.7698L22.5917 26.8035ZM22.5917 26.8035C22.4204 27.3602 22.0652 28.003 21.6593 28.7327L22.5917 26.8035ZM26.345 38.7857C26.3401 38.8575 26.3316 38.9401 26.3245 39.0081C26.3237 39.0162 26.3228 39.0241 26.3221 39.0317L26.322 39.0319L26.345 38.7857Z" stroke="black" stroke-width="0.2"/>
<path fill-rule="evenodd" clip-rule="evenodd" d="M30.3328 29.7388C30.4021 29.7297 30.4706 29.7208 30.5381 29.7118C32.085 29.5011 33.0192 28.5892 33.5758 27.7009C34.129 26.818 34.301 25.9691 34.3162 25.8918C34.3643 25.6154 34.5382 25.3895 34.7596 25.2617L34.9328 25.1617L34.9464 25.1852C35.0845 25.1422 35.2357 25.1309 35.3868 25.1589C35.8841 25.2472 36.217 25.7263 36.1234 26.2259C35.8254 27.8418 34.3384 31.0513 30.779 31.5366C30.5426 31.5682 30.2947 31.6004 30.0481 31.6326L30.0468 31.6327C29.2405 31.7355 28.3913 31.8456 27.6331 32.0106C26.8696 32.1767 26.2264 32.3929 25.8165 32.6931L25.8147 32.6944C25.4061 32.9866 24.8332 32.9029 24.5334 32.4944C24.2335 32.0857 24.3269 31.5102 24.7338 31.2118C25.3593 30.7525 26.1621 30.465 27.0282 30.2618C27.8935 30.0587 28.84 29.9359 29.761 29.8163L29.8128 29.8096C29.9875 29.7837 30.1627 29.7609 30.3328 29.7388Z" fill="#1E81CE"/>
</svg>
