<svg width="28" height="28" viewBox="0 0 28 28" fill="none" xmlns="http://www.w3.org/2000/svg">
<path d="M14 10.5C13.3078 10.5 12.6311 10.7053 12.0555 11.0899C11.4799 11.4744 11.0313 12.0211 10.7664 12.6606C10.5015 13.3001 10.4322 14.0039 10.5673 14.6828C10.7023 15.3617 11.0356 15.9854 11.5251 16.4749C12.0146 16.9644 12.6383 17.2977 13.3172 17.4327C13.9961 17.5678 14.6999 17.4985 15.3394 17.2336C15.9789 16.9687 16.5256 16.5201 16.9101 15.9445C17.2947 15.3689 17.5 14.6922 17.5 14C17.5 13.0717 17.1313 12.1815 16.4749 11.5251C15.8185 10.8687 14.9283 10.5 14 10.5ZM14 15.75C13.6539 15.75 13.3155 15.6474 13.0278 15.4551C12.74 15.2628 12.5157 14.9895 12.3832 14.6697C12.2508 14.3499 12.2161 13.9981 12.2836 13.6586C12.3512 13.3191 12.5178 13.0073 12.7626 12.7626C13.0073 12.5178 13.3191 12.3511 13.6586 12.2836C13.9981 12.2161 14.3499 12.2508 14.6697 12.3832C14.9895 12.5157 15.2628 12.74 15.4551 13.0278C15.6474 13.3155 15.75 13.6539 15.75 14C15.75 14.4641 15.5656 14.9092 15.2374 15.2374C14.9092 15.5656 14.4641 15.75 14 15.75ZM5.25 10.5C4.55777 10.5 3.88108 10.7053 3.30551 11.0899C2.72993 11.4744 2.28133 12.0211 2.01642 12.6606C1.75152 13.3001 1.6822 14.0039 1.81725 14.6828C1.9523 15.3617 2.28564 15.9854 2.77513 16.4749C3.26461 16.9644 3.88825 17.2977 4.56719 17.4327C5.24612 17.5678 5.94985 17.4985 6.58939 17.2336C7.22893 16.9687 7.77556 16.5201 8.16014 15.9445C8.54473 15.3689 8.75 14.6922 8.75 14C8.75 13.0717 8.38125 12.1815 7.72488 11.5251C7.0685 10.8687 6.17826 10.5 5.25 10.5ZM5.25 15.75C4.90388 15.75 4.56554 15.6474 4.27775 15.4551C3.98997 15.2628 3.76567 14.9895 3.63321 14.6697C3.50076 14.3499 3.4661 13.9981 3.53363 13.6586C3.60115 13.3191 3.76782 13.0073 4.01256 12.7626C4.25731 12.5178 4.56913 12.3511 4.90859 12.2836C5.24806 12.2161 5.59993 12.2508 5.9197 12.3832C6.23947 12.5157 6.51278 12.74 6.70507 13.0278C6.89737 13.3155 7 13.6539 7 14C7 14.4641 6.81563 14.9092 6.48744 15.2374C6.15925 15.5656 5.71413 15.75 5.25 15.75ZM22.75 10.5C22.0578 10.5 21.3811 10.7053 20.8055 11.0899C20.2299 11.4744 19.7813 12.0211 19.5164 12.6606C19.2515 13.3001 19.1822 14.0039 19.3173 14.6828C19.4523 15.3617 19.7856 15.9854 20.2751 16.4749C20.7646 16.9644 21.3883 17.2977 22.0672 17.4327C22.7461 17.5678 23.4499 17.4985 24.0894 17.2336C24.7289 16.9687 25.2756 16.5201 25.6601 15.9445C26.0447 15.3689 26.25 14.6922 26.25 14C26.25 13.0717 25.8813 12.1815 25.2249 11.5251C24.5685 10.8687 23.6783 10.5 22.75 10.5ZM22.75 15.75C22.4039 15.75 22.0655 15.6474 21.7778 15.4551C21.49 15.2628 21.2657 14.9895 21.1332 14.6697C21.0008 14.3499 20.9661 13.9981 21.0336 13.6586C21.1012 13.3191 21.2678 13.0073 21.5126 12.7626C21.7573 12.5178 22.0691 12.3511 22.4086 12.2836C22.7481 12.2161 23.0999 12.2508 23.4197 12.3832C23.7395 12.5157 24.0128 12.74 24.2051 13.0278C24.3974 13.3155 24.5 13.6539 24.5 14C24.5 14.4641 24.3156 14.9092 23.9874 15.2374C23.6593 15.5656 23.2141 15.75 22.75 15.75Z" fill="#7A7A7A"/>
</svg>
