<svg width="28" height="28" viewBox="0 0 28 28" fill="none" xmlns="http://www.w3.org/2000/svg">
<path d="M25.3619 19.1492C25.1669 20.6312 24.439 21.9916 23.3143 22.9763C22.1895 23.9609 20.7448 24.5025 19.25 24.4998C10.5656 24.4998 3.50001 17.4342 3.50001 8.74978C3.49733 7.25494 4.03889 5.81024 5.02353 4.68551C6.00817 3.56078 7.36857 2.83293 8.85063 2.6379C9.22541 2.59214 9.60494 2.66882 9.93256 2.85648C10.2602 3.04414 10.5183 3.33272 10.6684 3.67915L12.9784 8.83618V8.84931C13.0934 9.11449 13.1409 9.40402 13.1166 9.69202C13.0924 9.98002 12.9972 10.2575 12.8395 10.4998C12.8199 10.5293 12.7991 10.5567 12.7772 10.584L10.5 13.2834C11.3192 14.9481 13.0605 16.674 14.747 17.4954L17.4092 15.2302C17.4354 15.2083 17.4628 15.1878 17.4913 15.169C17.7333 15.0076 18.0118 14.909 18.3015 14.8823C18.5912 14.8555 18.883 14.9015 19.1505 15.0159L19.1647 15.0224L24.3174 17.3313C24.6644 17.4809 24.9537 17.7388 25.142 18.0665C25.3302 18.3942 25.4074 18.774 25.3619 19.1492Z" fill="#35ADE9"/>
</svg>
