<svg width="204" height="42" viewBox="0 0 204 42" fill="none" xmlns="http://www.w3.org/2000/svg">
<path d="M13.5177 28.4823C21.3829 28.4823 27.7589 22.1063 27.7589 14.2411V9.25673C27.7589 3.18799 23.5028 -1.71899e-07 19.5702 0C15.6376 1.71899e-07 11.3816 3.18799 11.3816 9.25674V16.3773C7.0208 16.3773 2.28518 20.0715 0.271946 24.3626C-0.730256 26.4987 1.1894 28.4823 3.54895 28.4823H13.5177Z" fill="#35ADE9"/>
<path d="M13.5178 28.4823C13.5178 20.6172 19.8938 14.2412 27.759 14.2412H32.7434C38.8121 14.2412 42.0001 18.4973 42.0001 22.4299C42.0001 26.3624 38.8121 30.6185 32.7434 30.6185H25.6228C25.6228 34.9793 21.9286 39.7149 17.6375 41.7281C15.5014 42.7303 13.5178 40.8107 13.5178 38.4511V28.4823Z" fill="#35E9A1"/>
<path d="M13.5178 28.4823C21.383 28.4823 27.759 22.1064 27.759 14.2412C19.8938 14.2412 13.5178 20.6172 13.5178 28.4823Z" fill="#35E9E3"/>
<path d="M53.96 31.636V12.764C53.96 12.54 54.1 12.4 54.324 12.4H56.564C56.788 12.4 56.928 12.54 56.928 12.764V20.772H67.26V12.764C67.26 12.54 67.4 12.4 67.624 12.4H69.864C70.088 12.4 70.228 12.54 70.228 12.764V31.636C70.228 31.86 70.088 32 69.864 32H67.624C67.4 32 67.26 31.86 67.26 31.636V23.628H56.928V31.636C56.928 31.86 56.788 32 56.564 32H54.324C54.1 32 53.96 31.86 53.96 31.636ZM86.5717 25.952H76.3517C76.6317 28.36 77.8917 29.928 80.1597 29.928C81.8117 29.928 82.9597 29.116 83.5477 27.688C83.5757 27.576 83.7157 27.52 83.8277 27.52H86.3197C86.5437 27.52 86.6557 27.66 86.5997 27.884C85.6757 30.908 83.2677 32.532 80.1597 32.532C76.2117 32.532 73.2997 29.816 73.2997 24.944C73.2997 20.072 76.2117 17.356 80.1597 17.356C84.7237 17.356 87.2717 20.968 86.9637 25.588C86.9637 25.812 86.7957 25.952 86.5717 25.952ZM76.3797 23.852H83.8837C83.5757 21.724 82.4557 19.96 80.1597 19.96C77.9197 19.96 76.6597 21.5 76.3797 23.852ZM98.8998 30.852C97.7518 31.916 96.3238 32.56 94.3918 32.56C91.1998 32.56 89.3238 30.46 89.2958 27.968C89.2958 24.048 93.8598 23.096 98.7038 23.04C98.6758 20.856 97.9478 19.988 95.5678 19.988C94.1678 19.988 92.3758 20.52 91.1998 20.996C91.0038 21.08 90.8358 20.996 90.7518 20.8L90.1638 19.008C90.0798 18.812 90.1918 18.588 90.3598 18.504C91.5918 17.972 93.7758 17.356 95.5678 17.356C100.188 17.356 101.672 19.316 101.672 23.292V26.736C101.672 28.136 101.784 30.012 101.952 31.44V31.636C101.98 31.86 101.812 32 101.588 32H99.3478C99.1518 32 99.0118 31.86 98.9838 31.636L98.9278 31.132C98.9278 31.02 98.9278 30.936 98.8998 30.852ZM98.7038 27.044V25.392C95.5958 25.448 92.2638 25.84 92.2638 27.968C92.2638 29.172 93.2158 30.18 94.9518 30.208C96.6318 30.208 97.7518 29.62 98.7598 28.528C98.7318 27.996 98.7038 27.492 98.7038 27.044ZM105.448 31.636V12.764C105.448 12.54 105.588 12.4 105.812 12.4H108.052C108.276 12.4 108.416 12.54 108.416 12.764V31.636C108.416 31.86 108.276 32 108.052 32H105.812C105.588 32 105.448 31.86 105.448 31.636ZM116.231 13.772V18H120.347C120.571 18 120.711 18.14 120.711 18.364V20.464C120.711 20.688 120.571 20.828 120.347 20.828H116.231V27.24C116.231 28.92 117.155 29.788 118.611 29.788C119.283 29.788 119.927 29.62 120.543 29.396C120.767 29.312 120.879 29.396 120.879 29.62V31.496C120.879 31.72 120.767 31.916 120.543 31.972C119.871 32.168 119.087 32.336 118.219 32.336C115.867 32.364 113.263 30.908 113.263 27.492V20.828H111.135C110.911 20.828 110.771 20.688 110.771 20.464V18.364C110.771 18.14 110.911 18 111.135 18H113.263V14.388C113.263 14.164 113.403 13.996 113.627 13.94L115.867 13.492C116.091 13.436 116.231 13.548 116.231 13.772ZM123.222 31.636V12.764C123.222 12.54 123.362 12.4 123.586 12.4H125.826C126.05 12.4 126.19 12.54 126.19 12.764V19.4C127.366 18.056 128.99 17.356 130.67 17.356C134.254 17.356 136.074 19.372 136.074 23.6V31.636C136.074 31.86 135.934 32 135.71 32H133.47C133.274 32 133.106 31.86 133.106 31.636V23.6C133.106 20.52 132.07 19.708 130.166 19.708C128.038 19.708 126.19 21.556 126.19 24.832V31.636C126.19 31.86 126.05 32 125.826 32H123.586C123.362 32 123.222 31.86 123.222 31.636ZM139.847 31.636V12.764C139.847 12.54 139.987 12.4 140.211 12.4H142.451C142.675 12.4 142.899 12.54 142.955 12.736L149.423 28.332L155.863 12.736C155.947 12.54 156.143 12.4 156.367 12.4H158.607C158.831 12.4 158.971 12.54 158.971 12.764V31.636C158.971 31.86 158.831 32 158.607 32H156.367C156.143 32 156.003 31.86 156.003 31.636V19.848L150.935 31.664C150.879 31.86 150.655 32 150.431 32H148.387C148.163 32 147.939 31.86 147.883 31.664L142.815 19.848V31.636C142.815 31.86 142.675 32 142.451 32H140.211C139.987 32 139.847 31.86 139.847 31.636ZM171.662 30.852C170.514 31.916 169.086 32.56 167.154 32.56C163.962 32.56 162.086 30.46 162.058 27.968C162.058 24.048 166.622 23.096 171.466 23.04C171.438 20.856 170.71 19.988 168.329 19.988C166.93 19.988 165.138 20.52 163.962 20.996C163.766 21.08 163.598 20.996 163.514 20.8L162.926 19.008C162.842 18.812 162.954 18.588 163.122 18.504C164.354 17.972 166.538 17.356 168.329 17.356C172.95 17.356 174.434 19.316 174.434 23.292V26.736C174.434 28.136 174.546 30.012 174.714 31.44V31.636C174.742 31.86 174.574 32 174.35 32H172.11C171.914 32 171.774 31.86 171.746 31.636L171.69 31.132C171.69 31.02 171.69 30.936 171.662 30.852ZM171.466 27.044V25.392C168.358 25.448 165.026 25.84 165.026 27.968C165.026 29.172 165.978 30.18 167.714 30.208C169.394 30.208 170.514 29.62 171.522 28.528C171.494 27.996 171.466 27.492 171.466 27.044ZM182.102 13.772V18H186.218C186.442 18 186.582 18.14 186.582 18.364V20.464C186.582 20.688 186.442 20.828 186.218 20.828H182.102V27.24C182.102 28.92 183.026 29.788 184.482 29.788C185.154 29.788 185.798 29.62 186.414 29.396C186.638 29.312 186.75 29.396 186.75 29.62V31.496C186.75 31.72 186.638 31.916 186.414 31.972C185.742 32.168 184.958 32.336 184.09 32.336C181.738 32.364 179.134 30.908 179.134 27.492V20.828H177.006C176.782 20.828 176.642 20.688 176.642 20.464V18.364C176.642 18.14 176.782 18 177.006 18H179.134V14.388C179.134 14.164 179.274 13.996 179.498 13.94L181.738 13.492C181.962 13.436 182.102 13.548 182.102 13.772ZM201.525 25.952H191.305C191.585 28.36 192.845 29.928 195.113 29.928C196.765 29.928 197.913 29.116 198.501 27.688C198.529 27.576 198.669 27.52 198.781 27.52H201.273C201.497 27.52 201.609 27.66 201.553 27.884C200.629 30.908 198.221 32.532 195.113 32.532C191.165 32.532 188.253 29.816 188.253 24.944C188.253 20.072 191.165 17.356 195.113 17.356C199.677 17.356 202.225 20.968 201.917 25.588C201.917 25.812 201.749 25.952 201.525 25.952ZM191.333 23.852H198.837C198.529 21.724 197.409 19.96 195.113 19.96C192.873 19.96 191.613 21.5 191.333 23.852Z" fill="white"/>
</svg>
